<?xml version="1.0" encoding="utf-8"?>
<!-- Generator: Adobe Illustrator 27.5.0, SVG Export Plug-In . SVG Version: 6.00 Build 0)  -->
<svg version="1.1" id="OBJECTS" xmlns="http://www.w3.org/2000/svg" xmlns:xlink="http://www.w3.org/1999/xlink" x="0px" y="0px"
	 width="500px" height="500px" viewBox="0 0 500 500" enable-background="new 0 0 500 500" xml:space="preserve">
<polygon fill="#00FFFF" points="148.4,480 240.4,427 240.4,345.3 325.7,296.1 325.7,362.5 454.6,250 325.7,137.5 325.7,203.9 
	240.4,154.7 240.4,73 148.4,20 148.4,120.4 368.9,250 148.4,379.6 "/>
<polygon fill="#009292" points="313.1,331.3 313.1,314.5 250.3,350.8 250.2,367.7 "/>
<polygon fill="#009292" points="313.1,185.5 313.1,168.7 250.2,132.3 250.3,149.2 "/>
<polygon fill="#009292" points="338,334.1 437.6,250 338,165.9 338,193.9 403.7,250 338,306.1 "/>
<polygon fill="#009292" points="225.1,143 226.3,79.2 159.5,40.3 161.4,56.6 203,80.2 203.4,91.6 179.6,77.5 180.7,93.3 
	203.8,107.1 203.8,129.5 "/>
<polygon fill="#009292" points="226.3,420.8 225.1,357 203.8,370.5 203.8,392.9 180.7,406.8 179.6,422.5 203.4,408.4 203,419.8 
	161.4,443.4 159.5,459.7 "/>
<polygon fill="#009292" points="225.3,250 225.3,314.1 338.5,250 225.3,185.9 "/>
<polygon fill="#00FFFF" points="299.7,250 205.3,203.2 205.4,250 205.3,296.8 "/>
<polygon fill="#00FFFF" points="159.3,331.7 81.4,376.5 81.4,395.5 187.1,336.5 187.1,250 187.1,163.5 81.4,104.5 81.4,123.5 
	159.3,168.4 159.3,250 "/>
<polygon fill="#009292" points="123.3,319.5 45.4,364.3 45.4,383.3 151.1,324.3 151.1,250 151.1,175.7 45.4,116.7 45.4,135.7 
	123.3,180.5 123.3,250 "/>
</svg>
