<?xml version="1.0" encoding="UTF-8"?>
<svg id="OBJECT" xmlns="http://www.w3.org/2000/svg" viewBox="0 0 32 32">
  <defs>
    <style>
      .cls-1 {
        stroke-width: 0px;
      }
    </style>
  </defs>
  <path class="cls-1" d="m24.98,15.46l-4.04,6.28,4.88,2.16,4.88-2.16-4.04-6.28c-.37-.57-1.31-.57-1.68,0Z"/>
  <path class="cls-1" d="m26.22,25.9c-.13.06-.27.09-.4.09s-.28-.03-.4-.09l-4.78-2.11,4.34,6.75c.18.29.5.46.84.46s.66-.17.84-.46l4.34-6.75-4.78,2.11Z"/>
  <path class="cls-1" d="m1.98,19.11c-.56.47-.91,1.13-.97,1.87-.06.73.16,1.44.63,2.01s1.14.91,1.87.97c.08,0,.16.01.24.01.65,0,1.26-.22,1.76-.64l7.85-6.59-3.53-4.21-7.85,6.59Z"/>
  <path class="cls-1" d="m25.8,10.55c-.35-.42-.99-.48-1.41-.12l-.38.32-6.43-7.66.38-.32c.42-.35.48-.99.12-1.41-.36-.42-.99-.48-1.41-.12l-8.43,7.07c-.42.35-.48.99-.12,1.41.2.24.48.36.77.36.23,0,.46-.08.64-.23l.38-.32,6.43,7.66-.38.32c-.42.35-.48.99-.12,1.41.2.24.48.36.77.36.23,0,.46-.08.64-.23l8.43-7.07c.42-.35.48-.99.12-1.41Zm-7.87.73c-.19.16-.42.23-.64.23-.29,0-.57-.12-.77-.36l-.64-.77c-.35-.42-.3-1.05.12-1.41.42-.35,1.05-.3,1.41.12l.64.77c.35.42.3,1.05-.12,1.41Z"/>
</svg>