<?xml version="1.0" encoding="UTF-8"?>
<svg id="OBJECT" xmlns="http://www.w3.org/2000/svg" viewBox="0 0 32 32">
  <defs>
    <style>
      .cls-1 {
        stroke-width: 0px;
      }
    </style>
  </defs>
  <path class="cls-1" d="m29,1H3c-1.1,0-2,.9-2,2v4h30V3c0-1.1-.9-2-2-2Zm-6,4h-.5c-.55,0-1-.45-1-1s.45-1,1-1h.5c.55,0,1,.45,1,1s-.45,1-1,1Zm4,0h-.5c-.55,0-1-.45-1-1s.45-1,1-1h.5c.55,0,1,.45,1,1s-.45,1-1,1Z"/>
  <rect class="cls-1" x="6.5" y="25" width="19" height="1.5" rx=".5" ry=".5"/>
  <rect class="cls-1" x="23" y="13.5" width="2" height="5.5" rx=".5" ry=".5"/>
  <rect class="cls-1" x="11" y="13.5" width="2" height="5.5" rx=".5" ry=".5"/>
  <path class="cls-1" d="m1,29c0,1.1.9,2,2,2h26c1.1,0,2-.9,2-2V9H1v20Zm20-15c0-1.38,1.12-2.5,2.5-2.5h1c1.38,0,2.5,1.12,2.5,2.5v4.5c0,1.38-1.12,2.5-2.5,2.5h-1c-1.38,0-2.5-1.12-2.5-2.5v-4.5Zm-4-1.5c0-.55.45-1,1-1s1,.45,1,1v7.5c0,.55-.45,1-1,1s-1-.45-1-1v-7.5Zm-8,1.5c0-1.38,1.12-2.5,2.5-2.5h1c1.38,0,2.5,1.12,2.5,2.5v4.5c0,1.38-1.12,2.5-2.5,2.5h-1c-1.38,0-2.5-1.12-2.5-2.5v-4.5Zm-4-1.5c0-.55.45-1,1-1s1,.45,1,1v7.5c0,.55-.45,1-1,1s-1-.45-1-1v-7.5Zm-.5,13c0-1.38,1.12-2.5,2.5-2.5h18c1.38,0,2.5,1.12,2.5,2.5v.5c0,1.38-1.12,2.5-2.5,2.5H7c-1.38,0-2.5-1.12-2.5-2.5v-.5Z"/>
</svg>