<?xml version="1.0" encoding="UTF-8"?>
<svg id="OBJECT" xmlns="http://www.w3.org/2000/svg" viewBox="0 0 32 32">
  <defs>
    <style>
      .cls-1 {
        stroke-width: 0px;
      }
    </style>
  </defs>
  <path class="cls-1" d="m15.45,8.17l-5.45,3.63,6,4,6-4-5.45-3.63c-.34-.22-.77-.22-1.11,0Z"/>
  <path class="cls-1" d="m17,19c0,.55-.45,1-1,1s-1-.45-1-1v-1.46l-6-4v5.46c0,.33.17.65.45.83l6,4c.17.11.36.17.55.17s.39-.06.55-.17l6-4c.28-.19.45-.5.45-.83v-5.46l-6,4v1.46Z"/>
  <rect class="cls-1" x="24" y="1" width="7" height="7" rx="2" ry="2"/>
  <rect class="cls-1" x="1" y="1" width="7" height="7" rx="2" ry="2"/>
  <rect class="cls-1" x="24" y="24" width="7" height="7" rx="2" ry="2"/>
  <rect class="cls-1" x="1" y="24" width="7" height="7" rx="2" ry="2"/>
  <path class="cls-1" d="m10.5,5.5h11c.55,0,1-.45,1-1s-.45-1-1-1h-11c-.55,0-1,.45-1,1s.45,1,1,1Z"/>
  <path class="cls-1" d="m21.5,26.5h-11c-.55,0-1,.45-1,1s.45,1,1,1h11c.55,0,1-.45,1-1s-.45-1-1-1Z"/>
  <path class="cls-1" d="m28.5,21.5v-11c0-.55-.45-1-1-1s-1,.45-1,1v11c0,.55.45,1,1,1s1-.45,1-1Z"/>
  <path class="cls-1" d="m5.5,21.5v-11c0-.55-.45-1-1-1s-1,.45-1,1v11c0,.55.45,1,1,1s1-.45,1-1Z"/>
</svg>