<?xml version="1.0" encoding="UTF-8"?>
<svg id="OBJECT" xmlns="http://www.w3.org/2000/svg" viewBox="0 0 32 32">
  <defs>
    <style>
      .cls-1 {
        stroke-width: 0px;
      }
    </style>
  </defs>
  <path class="cls-1" d="m26.9,8.15c-.37-1.92-1.96-3.4-3.9-3.62v.47c0,.55-.45,1-1,1s-1-.45-1-1v-2c0-1.1-.9-2-2-2s-2,.9-2,2v2.55c5.32.51,9.5,5,9.5,10.45s-4.18,9.94-9.5,10.45v2.55c0,1.1.9,2,2,2s2-.9,2-2v-2c0-.55.45-1,1-1s1,.45,1,1v.47c1.94-.22,3.53-1.7,3.9-3.62,2.5-1.58,4.1-4.6,4.1-7.85s-1.59-6.27-4.1-7.85Z"/>
  <path class="cls-1" d="m5.5,16c0-5.45,4.18-9.94,9.5-10.45v-2.55c0-1.1-.9-2-2-2s-2,.9-2,2v2c0,.55-.45,1-1,1s-1-.45-1-1v-.47c-1.94.22-3.53,1.7-3.9,3.62-2.5,1.58-4.1,4.6-4.1,7.85s1.59,6.27,4.1,7.85c.37,1.92,1.96,3.4,3.9,3.62v-.47c0-.55.45-1,1-1s1,.45,1,1v2c0,1.1.9,2,2,2s2-.9,2-2v-2.55c-5.32-.51-9.5-5-9.5-10.45Z"/>
  <polygon class="cls-1" points="14.2 16 16 18.7 17.8 16 16 13.3 14.2 16"/>
  <path class="cls-1" d="m24.5,16c0-4.69-3.81-8.5-8.5-8.5s-8.5,3.81-8.5,8.5,3.81,8.5,8.5,8.5,8.5-3.81,8.5-8.5Zm-4.67.55l-3,4.5c-.19.28-.5.45-.83.45s-.65-.17-.83-.45l-3-4.5c-.22-.34-.22-.77,0-1.11l3-4.5c.37-.56,1.29-.56,1.66,0l3,4.5c.22.34.22.77,0,1.11Z"/>
</svg>