<?xml version="1.0" encoding="UTF-8"?>
<svg id="OBJECT" xmlns="http://www.w3.org/2000/svg" viewBox="0 0 32 32">
  <defs>
    <style>
      .cls-1 {
        stroke-width: 0px;
      }
    </style>
  </defs>
  <path class="cls-1" d="m24,1h-3.19c-2.59,0-3.75,2.21-4.16,4.07-.21-.04-.43-.07-.65-.07s-.44.03-.65.07c-.41-1.86-1.57-4.07-4.16-4.07h-3.19c-.55,0-1,.45-1,1s.45,1,1,1h3.19c1.71,0,2.17,2.13,2.3,3.07-.61.63-.99,1.48-.99,2.43v.5h7v-.5c0-.94-.38-1.8-.99-2.43.12-.94.59-3.07,2.3-3.07h3.19c.55,0,1-.45,1-1s-.45-1-1-1Z"/>
  <path class="cls-1" d="m30.78,21.38l-1.7-2.12c-.38-.48-.95-.75-1.56-.75h-1.02v2h1.02l1.7,2.12c.2.25.49.38.78.38.22,0,.44-.07.62-.22.43-.35.5-.97.16-1.41Z"/>
  <path class="cls-1" d="m28.68,25.32l-2.31-.84c-.1.67-.27,1.32-.5,1.95l2.12.77v2.8c0,.55.45,1,1,1s1-.45,1-1v-2.8c0-.84-.53-1.59-1.32-1.88Z"/>
  <path class="cls-1" d="m30.12,13.57l.86-3.85c.12-.54-.22-1.07-.76-1.19-.54-.12-1.07.22-1.19.76l-.86,3.85-1.67.3v2.03l2.03-.37c.79-.14,1.42-.75,1.59-1.53Z"/>
  <path class="cls-1" d="m4.48,20.5h1.02v-2h-1.02c-.61,0-1.18.27-1.56.75l-1.7,2.12c-.35.43-.28,1.06.16,1.41.18.15.4.22.62.22.29,0,.58-.13.78-.38l1.7-2.12Z"/>
  <path class="cls-1" d="m3.32,25.32c-.79.29-1.32,1.04-1.32,1.88v2.8c0,.55.45,1,1,1s1-.45,1-1v-2.8l2.12-.77c-.23-.62-.4-1.27-.5-1.95l-2.31.84Z"/>
  <path class="cls-1" d="m1.88,13.57c.18.79.8,1.39,1.59,1.53l2.03.37v-2.03l-1.67-.3-.86-3.85c-.12-.54-.66-.88-1.19-.76-.54.12-.88.65-.76,1.19l.86,3.85Z"/>
  <path class="cls-1" d="m21.5,11h-11c-1.66,0-3,1.34-3,3v1.47c2.5.98,5.44,1.53,8.5,1.53s6-.55,8.5-1.53v-1.47c0-1.66-1.34-3-3-3Z"/>
  <path class="cls-1" d="m17,23c0,.55-.45,1-1,1s-1-.45-1-1v-4.03c-2.65-.1-5.22-.56-7.5-1.35v5.39c0,4.42,3.58,8,8,8h1c4.42,0,8-3.58,8-8v-5.39c-2.28.8-4.85,1.26-7.5,1.35v4.03Zm0,4c0,.55-.45,1-1,1s-1-.45-1-1v-.5c0-.55.45-1,1-1s1,.45,1,1v.5Z"/>
</svg>