<?xml version="1.0" encoding="UTF-8"?>
<svg id="OBJECT" xmlns="http://www.w3.org/2000/svg" viewBox="0 0 32 32">
  <defs>
    <style>
      .cls-1 {
        stroke-width: 0px;
      }
    </style>
  </defs>
  <path class="cls-1" d="m17,24.16v-3.16h-2v3.16c-1.65.5-2.8,2.15-2.43,4.03.25,1.32,1.29,2.41,2.6,2.71,2.29.53,4.34-1.2,4.34-3.4,0-1.58-1.06-2.9-2.5-3.34Z"/>
  <path class="cls-1" d="m29.02,26.15l-.39-.24c-.47-.29-1.09-.14-1.38.33-.29.47-.14,1.09.33,1.38l.39.24c.16.1.34.15.52.15.34,0,.66-.17.85-.48.29-.47.14-1.09-.33-1.38Z"/>
  <path class="cls-1" d="m26.02,24.3l-2.55-1.57c-.3-.18-.48-.5-.48-.85v-.88h-2v.88c0,1.04.54,2.01,1.43,2.55l2.55,1.57c.16.1.34.15.52.15.34,0,.66-.17.85-.48.29-.47.14-1.09-.33-1.38Z"/>
  <path class="cls-1" d="m3.36,25.91l-.39.24c-.47.29-.62.91-.33,1.38.19.31.52.48.85.48.18,0,.36-.05.52-.15l.39-.24c.47-.29.62-.91.33-1.38s-.91-.62-1.38-.33Z"/>
  <path class="cls-1" d="m9,21.88c0,.35-.18.67-.48.85l-2.55,1.57c-.47.29-.62.91-.33,1.38.19.31.52.48.85.48.18,0,.36-.05.52-.15l2.55-1.57c.89-.55,1.43-1.51,1.43-2.55v-.88h-2v.88Z"/>
  <path class="cls-1" d="m16.76,13c-.55,0-1-.45-1-1s.45-1,1-1h11.67c-.49-3.39-3.41-6-6.93-6-.48,0-.95.05-1.42.15-1.74-2.72-4.84-4.31-8.11-4.13-3.24.19-6.15,2.21-7.6,5.26-.74,1.56-1,3.18-.79,4.84-1.48.41-2.58,1.77-2.58,3.38v1c0,1.93,1.57,3.5,3.5,3.5h23.5c1.66,0,3-1.34,3-3h0c0-1.66-1.34-3-3-3h-11.24Zm-3.5,0h-.5c-.55,0-1-.45-1-1s.45-1,1-1h.5c.55,0,1,.45,1,1s-.45,1-1,1Z"/>
</svg>