<?xml version="1.0" encoding="UTF-8"?>
<svg id="OBJECT" xmlns="http://www.w3.org/2000/svg" viewBox="0 0 32 32">
  <defs>
    <style>
      .cls-1 {
        stroke-width: 0px;
      }
    </style>
  </defs>
  <path class="cls-1" d="m13.5,26c0,.55.45,1,1,1s1-.45,1-1v-4h-2v4Z"/>
  <path class="cls-1" d="m14.5,28.5c-.55,0-1,.45-1,1v.5c0,.55.45,1,1,1s1-.45,1-1v-.5c0-.55-.45-1-1-1Z"/>
  <path class="cls-1" d="m1.86,27.91l-.39.24c-.47.29-.62.91-.33,1.38.19.31.52.48.85.48.18,0,.36-.05.52-.15l.39-.24c.47-.29.62-.91.33-1.38s-.91-.62-1.38-.33Z"/>
  <path class="cls-1" d="m7.5,23.88c0,.35-.18.67-.48.85l-2.55,1.57c-.47.29-.62.91-.33,1.38.19.31.52.48.85.48.18,0,.36-.05.52-.15l2.55-1.57c.89-.55,1.43-1.51,1.43-2.55v-1.88h-2v1.88Z"/>
  <path class="cls-1" d="m3,8h11.03c.08-1.44.46-2.8,1.11-4H3c-1.1,0-2,.9-2,2s.9,2,2,2Z"/>
  <path class="cls-1" d="m3,14h12.77c-.83-1.17-1.4-2.53-1.64-4H3c-1.1,0-2,.9-2,2s.9,2,2,2Z"/>
  <path class="cls-1" d="m3,16c-1.1,0-2,.9-2,2s.9,2,2,2h17c1.1,0,2-.9,2-2v-.13c-1.61-.26-3.08-.91-4.31-1.87H3Z"/>
  <polygon class="cls-1" points="21.7 8.5 23.5 11.2 25.3 8.5 23.5 5.8 21.7 8.5"/>
  <path class="cls-1" d="m23.5,1c-4.14,0-7.5,3.36-7.5,7.5s3.36,7.5,7.5,7.5,7.5-3.36,7.5-7.5-3.36-7.5-7.5-7.5Zm3.83,8.05l-3,4.5c-.19.28-.5.45-.83.45s-.65-.17-.83-.45l-3-4.5c-.22-.34-.22-.77,0-1.11l3-4.5c.37-.56,1.29-.56,1.66,0l3,4.5c.22.34.22.77,0,1.11Z"/>
</svg>