<?xml version="1.0" encoding="UTF-8"?>
<svg id="OBJECT" xmlns="http://www.w3.org/2000/svg" viewBox="0 0 32 32">
  <defs>
    <style>
      .cls-1 {
        stroke-width: 0px;
      }
    </style>
  </defs>
  <path class="cls-1" d="m16,18.85c-.14,0-.29-.03-.42-.09l-.99-.46,1.41,2.3,1.41-2.3-.99.46c-.13.06-.28.09-.42.09Z"/>
  <polygon class="cls-1" points="13.44 15.56 16 16.75 18.56 15.56 16 11.41 13.44 15.56"/>
  <path class="cls-1" d="m25,6H7c-.55,0-1,.45-1,1v18c0,.55.45,1,1,1h18c.55,0,1-.45,1-1V7c0-.55-.45-1-1-1Zm-15.5,17.5h-.5c-.55,0-1-.45-1-1s.45-1,1-1h.5c.55,0,1,.45,1,1s-.45,1-1,1Zm0-13h-.5c-.55,0-1-.45-1-1s.45-1,1-1h.5c.55,0,1,.45,1,1s-.45,1-1,1Zm11.35,6.02l-4,6.5c-.18.3-.5.48-.85.48s-.67-.18-.85-.48l-4-6.5c-.2-.32-.2-.73,0-1.05l4-6.5c.36-.59,1.34-.59,1.7,0l4,6.5c.2.32.2.73,0,1.05Zm2.15,6.98h-.5c-.55,0-1-.45-1-1s.45-1,1-1h.5c.55,0,1,.45,1,1s-.45,1-1,1Zm0-13h-.5c-.55,0-1-.45-1-1s.45-1,1-1h.5c.55,0,1,.45,1,1s-.45,1-1,1Z"/>
  <path class="cls-1" d="m19.33,2c0-.55-.45-1-1-1s-1,.45-1,1v2h2v-2Z"/>
  <path class="cls-1" d="m14.67,2c0-.55-.45-1-1-1s-1,.45-1,1v2h2v-2Z"/>
  <path class="cls-1" d="m10,2c0-.55-.45-1-1-1s-1,.45-1,1v2h2v-2Z"/>
  <path class="cls-1" d="m24,2c0-.55-.45-1-1-1s-1,.45-1,1v2h2v-2Z"/>
  <path class="cls-1" d="m17.33,30c0,.55.45,1,1,1s1-.45,1-1v-2h-2v2Z"/>
  <path class="cls-1" d="m12.67,30c0,.55.45,1,1,1s1-.45,1-1v-2h-2v2Z"/>
  <path class="cls-1" d="m8,30c0,.55.45,1,1,1s1-.45,1-1v-2h-2v2Z"/>
  <path class="cls-1" d="m22,30c0,.55.45,1,1,1s1-.45,1-1v-2h-2v2Z"/>
  <path class="cls-1" d="m30,17.33h-2v2h2c.55,0,1-.45,1-1s-.45-1-1-1Z"/>
  <path class="cls-1" d="m30,12.67h-2v2h2c.55,0,1-.45,1-1s-.45-1-1-1Z"/>
  <path class="cls-1" d="m31,9c0-.55-.45-1-1-1h-2v2h2c.55,0,1-.45,1-1Z"/>
  <path class="cls-1" d="m30,22h-2v2h2c.55,0,1-.45,1-1s-.45-1-1-1Z"/>
  <path class="cls-1" d="m1,18.33c0,.55.45,1,1,1h2v-2h-2c-.55,0-1,.45-1,1Z"/>
  <path class="cls-1" d="m1,13.67c0,.55.45,1,1,1h2v-2h-2c-.55,0-1,.45-1,1Z"/>
  <path class="cls-1" d="m1,9c0,.55.45,1,1,1h2v-2h-2c-.55,0-1,.45-1,1Z"/>
  <path class="cls-1" d="m1,23c0,.55.45,1,1,1h2v-2h-2c-.55,0-1,.45-1,1Z"/>
</svg>