<?xml version="1.0" encoding="UTF-8"?>
<svg id="OBJECT" xmlns="http://www.w3.org/2000/svg" viewBox="0 0 32 32">
  <defs>
    <style>
      .cls-1 {
        stroke-width: 0px;
      }
    </style>
  </defs>
  <polygon class="cls-1" points="16 17.6 20.54 15.56 16 8.37 11.46 15.56 16 17.6"/>
  <path class="cls-1" d="m16.41,19.61c-.13.06-.27.09-.41.09s-.28-.03-.41-.09l-2.97-1.34,3.38,5.35,3.38-5.35-2.97,1.34Z"/>
  <path class="cls-1" d="m16,1C7.73,1,1,7.73,1,16s6.73,15,15,15,15-6.73,15-15S24.27,1,16,1Zm-9,15.5c0,.55-.45,1-1,1s-1-.45-1-1v-1c0-.55.45-1,1-1s1,.45,1,1v1Zm15.85.03l-6,9.5c-.18.29-.5.47-.85.47s-.66-.18-.85-.47l-6-9.5c-.21-.33-.21-.74,0-1.07l6-9.5c.37-.58,1.32-.58,1.69,0l6,9.5c.21.33.21.74,0,1.07Zm3.15.97c-.55,0-1-.45-1-1v-1c0-.55.45-1,1-1s1,.45,1,1v1c0,.55-.45,1-1,1Z"/>
</svg>