<?xml version="1.0" encoding="UTF-8"?>
<svg id="OBJECT" xmlns="http://www.w3.org/2000/svg" viewBox="0 0 32 32">
  <defs>
    <style>
      .cls-1 {
        stroke-width: 0px;
      }
    </style>
  </defs>
  <path class="cls-1" d="m30,8.82l-4.25-4.25-2.63,3.1.76,3.79c.07.33-.04.67-.27.9l-1.31,1.31c-.2.2-.45.29-.71.29s-.51-.1-.71-.29c-.39-.39-.39-1.02,0-1.41l.93-.93-.75-3.74c-.06-.3.02-.61.22-.84l3.05-3.6-1.15-1.15c-1.33-1.33-3.49-1.33-4.83,0l-6.41,6.41c-.78.78-.78,2.05,0,2.83l8.82,8.82c.78.78,2.05.78,2.83,0l6.41-6.41c1.33-1.33,1.33-3.49,0-4.83Zm-13.22,3.55c-.2.2-.45.29-.71.29s-.51-.1-.71-.29l-.43-.43c-.39-.39-.39-1.02,0-1.41.39-.39,1.02-.39,1.41,0l.43.43c.39.39.39,1.02,0,1.41Zm3.49,3.34l-.22.22c-.2.2-.45.29-.71.29s-.51-.1-.71-.29c-.39-.39-.39-1.02,0-1.41l.22-.22c.39-.39,1.02-.39,1.41,0s.39,1.02,0,1.41Z"/>
  <path class="cls-1" d="m1.72,24.6c-.17.17-.27.38-.29.62l-.43,4.69c-.03.3.08.59.29.8.19.19.44.29.71.29.03,0,.06,0,.09,0l4.69-.43c.23-.02.45-.12.62-.29l3.56-3.56-2.41-2.41c-.39-.39-.39-1.02,0-1.41s1.02-.39,1.41,0l2.41,2.41,2-2-2.41-2.41c-.39-.39-.39-1.02,0-1.41s1.02-.39,1.41,0l2.41,2.41,2-2-5.68-5.68L1.72,24.6Z"/>
</svg>