<?xml version="1.0" encoding="UTF-8"?>
<svg id="OBJECT" xmlns="http://www.w3.org/2000/svg" viewBox="0 0 32 32">
  <defs>
    <style>
      .cls-1 {
        stroke-width: 0px;
      }
    </style>
  </defs>
  <path class="cls-1" d="m16,17.34l6.36-2.56-5.54-7.85c-.38-.53-1.26-.53-1.63,0l-5.54,7.85,6.36,2.56Z"/>
  <path class="cls-1" d="m16.37,19.34c-.12.05-.25.07-.37.07s-.25-.02-.37-.07l-6.27-2.53,5.83,8.26c.19.27.49.42.82.42s.63-.16.82-.42l5.83-8.26-6.27,2.53Z"/>
  <path class="cls-1" d="m21.92,11.08c.26,0,.51-.1.71-.29l2.36-2.36c.59.35,1.28.57,2.02.57,2.21,0,4-1.79,4-4s-1.79-4-4-4-4,1.79-4,4c0,.74.22,1.42.57,2.02l-2.36,2.36c-.39.39-.39,1.02,0,1.41.2.2.45.29.71.29Z"/>
  <path class="cls-1" d="m5,9c.74,0,1.42-.22,2.02-.57l2.36,2.36c.2.2.45.29.71.29s.51-.1.71-.29c.39-.39.39-1.02,0-1.41l-2.36-2.36c.35-.59.57-1.28.57-2.02,0-2.21-1.79-4-4-4S1,2.79,1,5s1.79,4,4,4Z"/>
  <path class="cls-1" d="m27,23c-.74,0-1.42.22-2.02.57l-2.36-2.36c-.39-.39-1.02-.39-1.41,0s-.39,1.02,0,1.41l2.36,2.36c-.35.59-.57,1.28-.57,2.02,0,2.21,1.79,4,4,4s4-1.79,4-4-1.79-4-4-4Z"/>
  <path class="cls-1" d="m9.38,21.21l-2.36,2.36c-.59-.35-1.28-.57-2.02-.57-2.21,0-4,1.79-4,4s1.79,4,4,4,4-1.79,4-4c0-.74-.22-1.42-.57-2.02l2.36-2.36c.39-.39.39-1.02,0-1.41s-1.02-.39-1.41,0Z"/>
</svg>