<?xml version="1.0" encoding="UTF-8"?>
<svg id="OBJECT" xmlns="http://www.w3.org/2000/svg" viewBox="0 0 32 32">
  <defs>
    <style>
      .cls-1 {
        stroke-width: 0px;
      }
    </style>
  </defs>
  <path class="cls-1" d="m27,5h-1v21c0,1.65-1.35,3-3,3h-15v1c0,.55.45,1,1,1h18c.55,0,1-.45,1-1V6c0-.55-.45-1-1-1Z"/>
  <path class="cls-1" d="m14,15.1c-.13,0-.26-.02-.38-.08l-1.38-.56,1.75,2.53,1.75-2.53-1.38.56c-.12.05-.25.08-.38.08Z"/>
  <path class="cls-1" d="m24,26V2c0-.55-.45-1-1-1H5c-.55,0-1,.45-1,1v24c0,.55.45,1,1,1h18c.55,0,1-.45,1-1Zm-15.32-14.32l4.5-6.5c.37-.54,1.27-.54,1.64,0l4.5,6.5c.24.34.24.8,0,1.14l-4.5,6.5c-.19.27-.49.43-.82.43s-.64-.16-.82-.43l-4.5-6.5c-.24-.34-.24-.8,0-1.14Zm.32,11.57h-.5c-.55,0-1-.45-1-1s.45-1,1-1h.5c.55,0,1,.45,1,1s-.45,1-1,1Zm7,0h-4c-.55,0-1-.45-1-1s.45-1,1-1h4c.55,0,1,.45,1,1s-.45,1-1,1Zm3.5,0h-.5c-.55,0-1-.45-1-1s.45-1,1-1h.5c.55,0,1,.45,1,1s-.45,1-1,1Z"/>
  <polygon class="cls-1" points="16.97 11.8 14 7.51 11.03 11.8 14 13.02 16.97 11.8"/>
</svg>