<?xml version="1.0" encoding="UTF-8"?>
<svg id="OBJECT" xmlns="http://www.w3.org/2000/svg" viewBox="0 0 32 32">
  <defs>
    <style>
      .cls-1 {
        stroke-width: 0px;
      }
    </style>
  </defs>
  <path class="cls-1" d="m26,1H6c-1.1,0-2,.9-2,2v14c0,1.1.9,2,2,2h20c1.1,0,2-.9,2-2V3c0-1.1-.9-2-2-2Zm-1.96,12.06c.47.3.6.92.3,1.38-.19.3-.51.46-.84.46-.18,0-.37-.05-.54-.16l-5.55-3.56-.87.56c-.16.1-.35.16-.54.16s-.37-.05-.54-.16l-.87-.56-5.55,3.56c-.17.11-.35.16-.54.16-.33,0-.65-.16-.84-.46-.3-.46-.16-1.08.3-1.38l4.78-3.06-4.78-3.06c-.47-.3-.6-.92-.3-1.38s.92-.6,1.38-.3l6.96,4.46,6.96-4.46c.46-.3,1.08-.16,1.38.3.3.47.16,1.08-.3,1.38l-4.78,3.06,4.78,3.06Z"/>
  <path class="cls-1" d="m17,24.16v-3.16h-2v3.16c-1.44.43-2.5,1.76-2.5,3.34,0,1.93,1.57,3.5,3.5,3.5s3.5-1.57,3.5-3.5c0-1.58-1.06-2.9-2.5-3.34Z"/>
  <path class="cls-1" d="m27.52,27.15l-.39-.24c-.47-.29-1.09-.14-1.38.33s-.14,1.09.33,1.38l.39.24c.16.1.34.15.52.15.34,0,.66-.17.85-.48.29-.47.14-1.09-.33-1.38Z"/>
  <path class="cls-1" d="m24.52,25.3l-2.55-1.57c-.3-.18-.48-.5-.48-.85v-1.88h-2v1.88c0,1.05.53,2,1.43,2.56l2.55,1.57c.16.1.34.15.52.15.34,0,.66-.17.85-.48.29-.47.14-1.09-.33-1.38Z"/>
  <path class="cls-1" d="m4.86,26.91l-.39.24c-.47.29-.62.91-.33,1.38.19.31.52.48.85.48.18,0,.36-.05.52-.15l.39-.24c.47-.29.62-.91.33-1.38s-.91-.62-1.38-.33Z"/>
  <path class="cls-1" d="m12.5,21h-2v1.88c0,.35-.18.67-.48.85l-2.55,1.57c-.47.29-.62.91-.33,1.38.19.31.52.48.85.48.18,0,.36-.05.52-.15l2.55-1.57c.89-.55,1.43-1.51,1.43-2.56v-1.88Z"/>
</svg>