<?xml version="1.0" encoding="UTF-8"?>
<svg id="OBJECT" xmlns="http://www.w3.org/2000/svg" viewBox="0 0 32 32">
  <defs>
    <style>
      .cls-1 {
        stroke-width: 0px;
      }
    </style>
  </defs>
  <path class="cls-1" d="m20,6h2c1.1,0,2,.9,2,2v1.59l-1.29-1.29c-.39-.39-1.02-.39-1.41,0s-.39,1.02,0,1.41l3,3c.2.2.45.29.71.29s.51-.1.71-.29l3-3c.39-.39.39-1.02,0-1.41s-1.02-.39-1.41,0l-1.29,1.29v-1.59c0-2.21-1.79-4-4-4h-2c-.55,0-1,.45-1,1s.45,1,1,1Z"/>
  <path class="cls-1" d="m12,26h-2c-1.1,0-2-.9-2-2v-1.59l1.29,1.29c.2.2.45.29.71.29s.51-.1.71-.29c.39-.39.39-1.02,0-1.41l-3-3c-.39-.39-1.02-.39-1.41,0l-3,3c-.39.39-.39,1.02,0,1.41s1.02.39,1.41,0l1.29-1.29v1.59c0,2.21,1.79,4,4,4h2c.55,0,1-.45,1-1s-.45-1-1-1Z"/>
  <path class="cls-1" d="m22.5,14c-4.69,0-8.5,3.81-8.5,8.5s3.81,8.5,8.5,8.5,8.5-3.81,8.5-8.5-3.81-8.5-8.5-8.5Zm-.75,7.5h1.5c1.38,0,2.5,1.12,2.5,2.5,0,1.29-.99,2.35-2.25,2.47v.53c0,.55-.45,1-1,1s-1-.45-1-1v-.5h-1.25c-.55,0-1-.45-1-1s.45-1,1-1h3c.28,0,.5-.22.5-.5s-.22-.5-.5-.5h-1.5c-1.38,0-2.5-1.12-2.5-2.5,0-1.29.99-2.35,2.25-2.47v-.53c0-.55.45-1,1-1s1,.45,1,1v.5h1.25c.55,0,1,.45,1,1s-.45,1-1,1h-3c-.28,0-.5.22-.5.5s.22.5.5.5Z"/>
  <path class="cls-1" d="m9.5,18c4.69,0,8.5-3.81,8.5-8.5S14.19,1,9.5,1,1,4.81,1,9.5s3.81,8.5,8.5,8.5Zm-3.83-9.05l3-4.5c.37-.56,1.29-.56,1.66,0l3,4.5c.22.34.22.77,0,1.11l-3,4.5c-.19.28-.5.45-.83.45s-.65-.17-.83-.45l-3-4.5c-.22-.34-.22-.77,0-1.11Z"/>
  <polygon class="cls-1" points="11.3 9.5 9.5 6.8 7.7 9.5 9.5 12.2 11.3 9.5"/>
</svg>