<?xml version="1.0" encoding="UTF-8"?>
<svg id="OBJECT" xmlns="http://www.w3.org/2000/svg" viewBox="0 0 32 32">
  <defs>
    <style>
      .cls-1 {
        stroke-width: 0px;
      }
    </style>
  </defs>
  <path class="cls-1" d="m11.5,16c0-.15.03-.3.05-.45-1.8-.1-3.62-.6-5.36-1.48-.12.62-.19,1.27-.19,1.93,0,.79.1,1.56.28,2.3,1.89.07,3.86-.4,5.45-.94-.14-.43-.23-.88-.23-1.35Z"/>
  <circle class="cls-1" cx="16" cy="16" r="2.5"/>
  <path class="cls-1" d="m18.44,12.23c.29.19.56.41.8.66,1.62-.58,3.69-1.12,5.78-1.18-1.05-2.21-2.89-3.97-5.15-4.93-.74,1.38-1.43,3.27-1.43,5.45Z"/>
  <path class="cls-1" d="m20.27,14.65c.14.43.23.88.23,1.35,0,.16-.03.3-.05.45,1.8.1,3.62.6,5.36,1.47.12-.62.19-1.27.19-1.93,0-.79-.1-1.56-.28-2.3-1.89-.07-3.86.4-5.45.94Z"/>
  <path class="cls-1" d="m14.65,11.73c.43-.14.88-.23,1.35-.23.16,0,.3.03.45.05.1-1.8.6-3.62,1.47-5.36-.62-.12-1.27-.19-1.93-.19-.79,0-1.56.1-2.3.28-.07,1.89.4,3.86.94,5.45Z"/>
  <path class="cls-1" d="m13.56,19.77c-.29-.19-.56-.41-.8-.66-1.62.58-3.69,1.13-5.78,1.18,1.06,2.2,2.88,3.97,5.15,4.92.74-1.38,1.43-3.27,1.43-5.45Z"/>
  <path class="cls-1" d="m12.23,13.56c.19-.29.41-.56.66-.8-.58-1.62-1.13-3.69-1.18-5.78-2.21,1.06-3.97,2.89-4.93,5.15,1.38.74,3.27,1.43,5.45,1.43Z"/>
  <path class="cls-1" d="m28,1H4c-1.65,0-3,1.35-3,3v24c0,1.65,1.35,3,3,3h24c1.65,0,3-1.35,3-3V4c0-1.65-1.35-3-3-3Zm-12,27c-6.62,0-12-5.38-12-12s5.38-12,12-12,12,5.38,12,12-5.38,12-12,12Z"/>
  <path class="cls-1" d="m19.77,18.44c-.19.29-.41.56-.66.8.58,1.62,1.13,3.69,1.18,5.78,2.21-1.06,3.97-2.89,4.93-5.15-1.38-.74-3.27-1.44-5.45-1.43Z"/>
  <path class="cls-1" d="m17.35,20.27c-.43.14-.88.23-1.35.23-.16,0-.3-.03-.45-.05-.1,1.8-.6,3.62-1.47,5.36.62.12,1.27.19,1.93.19.79,0,1.56-.1,2.3-.28.07-1.89-.4-3.86-.94-5.45Z"/>
</svg>