<?xml version="1.0" encoding="UTF-8"?>
<svg id="OBJECT" xmlns="http://www.w3.org/2000/svg" viewBox="0 0 32 32">
  <defs>
    <style>
      .cls-1 {
        stroke-width: 0px;
      }
    </style>
  </defs>
  <path class="cls-1" d="m7,29c0,1.1.9,2,2,2h14c1.1,0,2-.9,2-2v-1H7v1Z"/>
  <path class="cls-1" d="m27,7.5h-1c-.55,0-1,.45-1,1s.45,1,1,1h1c.55,0,1-.45,1-1s-.45-1-1-1Z"/>
  <path class="cls-1" d="m25.13,5.39c.14,0,.28-.03.41-.09l.87-.39c.5-.23.73-.82.5-1.32s-.82-.73-1.32-.5l-.87.39c-.5.23-.73.82-.5,1.32.17.37.53.59.91.59Z"/>
  <path class="cls-1" d="m26.41,12.09l-.87-.39c-.5-.23-1.1,0-1.32.5s0,1.1.5,1.32l.87.39c.13.06.27.09.41.09.38,0,.75-.22.91-.59.23-.5,0-1.1-.5-1.32Z"/>
  <path class="cls-1" d="m7,8.5c0-.55-.45-1-1-1h-1c-.55,0-1,.45-1,1s.45,1,1,1h1c.55,0,1-.45,1-1Z"/>
  <path class="cls-1" d="m5.59,4.91l.87.39c.13.06.27.09.41.09.38,0,.75-.22.91-.59.23-.5,0-1.1-.5-1.32l-.87-.39c-.5-.23-1.1,0-1.32.5-.23.5,0,1.1.5,1.32Z"/>
  <path class="cls-1" d="m7.78,12.2c-.23-.5-.82-.73-1.32-.5l-.87.39c-.5.23-.73.82-.5,1.32.17.37.53.59.91.59.14,0,.28-.03.41-.09l.87-.39c.5-.23.73-.82.5-1.32Z"/>
  <path class="cls-1" d="m17,26v-1.79c.23.04.46.07.69.07.74,0,1.48-.19,2.15-.58,1.32-.76,2.12-2.13,2.16-3.67,0-.32-.16-.62-.45-.77-1.35-.74-2.94-.72-4.25.04-.11.06-.2.15-.3.22v-1.57c-.33.03-.66.05-1,.05s-.67-.02-1-.05v1.57c-.1-.07-.19-.16-.3-.22-1.32-.76-2.91-.77-4.25-.04-.28.15-.45.45-.45.77.03,1.54.84,2.91,2.16,3.67.67.39,1.41.58,2.15.58.23,0,.46-.03.69-.07v1.79h2Z"/>
  <polygon class="cls-1" points="17.4 8.5 16 6.4 14.6 8.5 16 10.6 17.4 8.5"/>
  <path class="cls-1" d="m16,16c4.14,0,7.5-3.36,7.5-7.5s-3.36-7.5-7.5-7.5-7.5,3.36-7.5,7.5,3.36,7.5,7.5,7.5Zm-3.43-8.05l2.6-3.9c.37-.56,1.29-.56,1.66,0l2.6,3.9c.22.34.22.77,0,1.11l-2.6,3.9c-.19.28-.5.45-.83.45s-.65-.17-.83-.45l-2.6-3.9c-.22-.34-.22-.77,0-1.11Z"/>
</svg>