<?xml version="1.0" encoding="UTF-8"?>
<svg id="OBJECT" xmlns="http://www.w3.org/2000/svg" viewBox="0 0 32 32">
  <defs>
    <style>
      .cls-1 {
        stroke-width: 0px;
      }
    </style>
  </defs>
  <path class="cls-1" d="m9,11.44c.55,0,1-.45,1-1v-4.44c0-.55-.45-1-1-1s-1,.45-1,1v4.44c0,.55.45,1,1,1Z"/>
  <path class="cls-1" d="m9,3.5c.55,0,1-.45,1-1v-.5c0-.55-.45-1-1-1s-1,.45-1,1v.5c0,.55.45,1,1,1Z"/>
  <path class="cls-1" d="m1.58,6.75l1.63.75c.18.08.29.26.29.45v3.04c0,.55.45,1,1,1s1-.45,1-1v-3.04c0-.97-.57-1.86-1.45-2.27l-1.63-.75c-.5-.23-1.1-.01-1.33.49-.23.5-.01,1.1.49,1.33Z"/>
  <path class="cls-1" d="m1,24.83v2.17c0,2.75,5.18,4,10,4s10-1.25,10-4v-2.17c-1.86,2.29-6.03,3.17-10,3.17s-8.14-.88-10-3.17Z"/>
  <path class="cls-1" d="m11,23c-3.97,0-8.14-.88-10-3.17v2.17c0,2.75,5.18,4,10,4s10-1.25,10-4v-.2c-.6-.12-1.19-.31-1.75-.53-2.15,1.23-5.25,1.74-8.25,1.74Z"/>
  <path class="cls-1" d="m11,21c2.2,0,4.46-.26,6.28-.81-2.31-1.61-3.91-4.17-4.22-7.11-.68-.05-1.38-.08-2.06-.08-4.82,0-10,1.25-10,4s5.18,4,10,4Zm-.25-5h.5c.55,0,1,.45,1,1s-.45,1-1,1h-.5c-.55,0-1-.45-1-1s.45-1,1-1Zm-4,0h.5c.55,0,1,.45,1,1s-.45,1-1,1h-.5c-.55,0-1-.45-1-1s.45-1,1-1Z"/>
  <path class="cls-1" d="m23,4c-4.41,0-8,3.59-8,8s3.59,8,8,8,8-3.59,8-8-3.59-8-8-8Zm3.83,8.55l-3,4.5c-.19.28-.5.45-.83.45s-.65-.17-.83-.45l-3-4.5c-.22-.34-.22-.77,0-1.11l3-4.5c.37-.56,1.29-.56,1.66,0l3,4.5c.22.34.22.77,0,1.11Z"/>
  <polygon class="cls-1" points="21.2 12 23 14.7 24.8 12 23 9.3 21.2 12"/>
</svg>