<?xml version="1.0" encoding="UTF-8"?>
<svg id="OBJECT" xmlns="http://www.w3.org/2000/svg" viewBox="0 0 32 32">
  <defs>
    <style>
      .cls-1 {
        stroke-width: 0px;
      }
    </style>
  </defs>
  <path class="cls-1" d="m30,20h-1c-.55,0-1,.45-1,1s.45,1,1,1h1c.55,0,1-.45,1-1s-.45-1-1-1Z"/>
  <path class="cls-1" d="m28.07,17.25c.17,0,.34-.04.5-.13l.87-.5c.48-.28.64-.89.37-1.37-.28-.48-.89-.64-1.37-.37l-.87.5c-.48.28-.64.89-.37,1.37.19.32.52.5.87.5Z"/>
  <path class="cls-1" d="m29.43,25.38l-.87-.5c-.48-.28-1.09-.11-1.37.37-.28.48-.11,1.09.37,1.37l.87.5c.16.09.33.13.5.13.35,0,.68-.18.87-.5.28-.48.11-1.09-.37-1.37Z"/>
  <path class="cls-1" d="m4,21c0-.55-.45-1-1-1h-1c-.55,0-1,.45-1,1s.45,1,1,1h1c.55,0,1-.45,1-1Z"/>
  <path class="cls-1" d="m4.43,15.38l-.87-.5c-.48-.28-1.09-.11-1.37.37-.28.48-.11,1.09.37,1.37l.87.5c.16.09.33.13.5.13.35,0,.68-.18.87-.5.28-.48.11-1.09-.37-1.37Z"/>
  <path class="cls-1" d="m3.43,24.88l-.87.5c-.48.28-.64.89-.37,1.37.19.32.52.5.87.5.17,0,.34-.04.5-.13l.87-.5c.48-.28.64-.89.37-1.37-.28-.48-.89-.64-1.37-.37Z"/>
  <path class="cls-1" d="m25,1h-5c-1.64,0-3.09.81-4,2.03-.91-1.23-2.36-2.03-4-2.03h-5c-.55,0-1,.45-1,1v1c0,2.76,2.24,5,5,5h4v1.05c.33-.03.66-.05,1-.05s.67.02,1,.05v-1.05h4c2.76,0,5-2.24,5-5v-1c0-.55-.45-1-1-1Z"/>
  <path class="cls-1" d="m16,23c-.08,0-.16,0-.24-.03l-1.33-.33,1.57,2.16,1.57-2.16-1.33.33c-.08.02-.16.03-.24.03Z"/>
  <polygon class="cls-1" points="13.68 20.39 16 20.97 18.32 20.39 16 17.2 13.68 20.39"/>
  <path class="cls-1" d="m16,11c-5.51,0-10,4.49-10,10s4.49,10,10,10,10-4.49,10-10-4.49-10-10-10Zm4.81,10.59l-4,5.5c-.19.26-.49.41-.81.41s-.62-.15-.81-.41l-4-5.5c-.25-.35-.25-.83,0-1.18l4-5.5c.38-.52,1.24-.52,1.62,0l4,5.5c.25.35.25.83,0,1.18Z"/>
</svg>