<?xml version="1.0" encoding="UTF-8"?>
<svg id="OBJECT" xmlns="http://www.w3.org/2000/svg" viewBox="0 0 32 32">
  <defs>
    <style>
      .cls-1 {
        stroke-width: 0px;
      }
    </style>
  </defs>
  <path class="cls-1" d="m13,16.49c-.14,0-.28-.03-.4-.09l-1.45-.64,1.86,2.89,1.86-2.89-1.45.64c-.13.06-.27.09-.4.09Z"/>
  <polygon class="cls-1" points="9.97 13.06 13 14.4 16.03 13.06 13 8.35 9.97 13.06"/>
  <path class="cls-1" d="m25,28V1h-2c-.16,0-.31.04-.45.11l-3.6,1.8-4.58-1.83c-.24-.1-.5-.1-.74,0l-4.58,1.83-3.6-1.8c-.14-.07-.29-.11-.45-.11h-3c-.55,0-1,.45-1,1v26c0,1.65,1.35,3,3,3h24c-1.65,0-3-1.35-3-3Zm-19.5-1.5h-.5c-.55,0-1-.45-1-1s.45-1,1-1h.5c.55,0,1,.45,1,1s-.45,1-1,1Zm11.5,0h-8c-.55,0-1-.45-1-1s.45-1,1-1h8c.55,0,1,.45,1,1s-.45,1-1,1Zm1.34-12.46l-4.5,7c-.18.29-.5.46-.84.46s-.66-.17-.84-.46l-4.5-7c-.21-.33-.21-.75,0-1.08l4.5-7c.37-.57,1.31-.57,1.68,0l4.5,7c.21.33.21.75,0,1.08Zm2.66,12.46h-.5c-.55,0-1-.45-1-1s.45-1,1-1h.5c.55,0,1,.45,1,1s-.45,1-1,1Z"/>
  <path class="cls-1" d="m27,15v13c0,.55.45,1,1,1h2c.55,0,1-.45,1-1v-13h-4Z"/>
</svg>