<?xml version="1.0" encoding="UTF-8"?>
<svg id="OBJECT" xmlns="http://www.w3.org/2000/svg" viewBox="0 0 32 32">
  <defs>
    <style>
      .cls-1 {
        stroke-width: 0px;
      }
    </style>
  </defs>
  <path class="cls-1" d="m15,26c0,.55.45,1,1,1s1-.45,1-1v-3h-2v3Z"/>
  <path class="cls-1" d="m16,28.5c-.55,0-1,.45-1,1v.5c0,.55.45,1,1,1s1-.45,1-1v-.5c0-.55-.45-1-1-1Z"/>
  <path class="cls-1" d="m29.02,28.15l-.39-.24c-.47-.29-1.09-.14-1.38.33s-.14,1.09.33,1.38l.39.24c.16.1.34.15.52.15.34,0,.66-.17.85-.48.29-.47.14-1.09-.33-1.38Z"/>
  <path class="cls-1" d="m26.02,26.3l-2.55-1.57c-.3-.18-.48-.5-.48-.85v-.88h-2v.88c0,1.05.53,2,1.43,2.55l2.55,1.57c.16.1.34.15.52.15.34,0,.66-.17.85-.48.29-.47.14-1.09-.33-1.38Z"/>
  <path class="cls-1" d="m3.36,27.91l-.39.24c-.47.29-.62.91-.33,1.38.19.31.52.48.85.48.18,0,.36-.05.52-.15l.39-.24c.47-.29.62-.91.33-1.38s-.91-.62-1.38-.33Z"/>
  <path class="cls-1" d="m9,23.88c0,.35-.18.67-.48.85l-2.55,1.57c-.47.29-.62.91-.33,1.38.19.31.52.48.85.48.18,0,.36-.05.52-.15l2.55-1.57c.89-.55,1.43-1.51,1.43-2.55v-.88h-2v.88Z"/>
  <path class="cls-1" d="m1,18v1c0,1.1.9,2,2,2h26c1.1,0,2-.9,2-2v-1H1Z"/>
  <polygon class="cls-1" points="14.2 8.49 16 11.18 17.8 8.49 16 5.79 14.2 8.49"/>
  <path class="cls-1" d="m29,3c0-1.1-.9-2-2-2H5c-1.1,0-2,.9-2,2v13h26V3Zm-20,6.5h-1c-.55,0-1-.45-1-1s.45-1,1-1h1c.55,0,1,.45,1,1s-.45,1-1,1Zm10.83-.46l-3,4.5c-.19.28-.5.45-.83.45s-.65-.17-.83-.45l-3-4.5c-.22-.34-.22-.77,0-1.11l3-4.5c.37-.56,1.29-.56,1.66,0l3,4.5c.22.34.22.77,0,1.11Zm4.17.46h-1c-.55,0-1-.45-1-1s.45-1,1-1h1c.55,0,1,.45,1,1s-.45,1-1,1Z"/>
</svg>