<?xml version="1.0" encoding="UTF-8"?>
<svg id="OBJECT" xmlns="http://www.w3.org/2000/svg" viewBox="0 0 32 32">
  <defs>
    <style>
      .cls-1 {
        stroke-width: 0px;
      }
    </style>
  </defs>
  <path class="cls-1" d="m2,29h25c.55,0,1,.45,1,1s-.45,1-1,1H2c-.55,0-1-.45-1-1s.45-1,1-1Z"/>
  <path class="cls-1" d="m3.5,11c0-1.1.9-2,2-2h2c1.1,0,2,.9,2,2v16H3.5V11Z"/>
  <path class="cls-1" d="m11.5,18c0-1.1.9-2,2-2h2c1.1,0,2,.9,2,2v9h-6v-9Z"/>
  <path class="cls-1" d="m21.5,21h2c1.1,0,2,.9,2,2v4h-6v-4c0-1.1.9-2,2-2Z"/>
  <path class="cls-1" d="m19.93,8.7l4.54-7.26c.37-.58,1.33-.58,1.7,0l4.54,7.26-5.38,2.45-5.38-2.45Z"/>
  <path class="cls-1" d="m25.31,18.97c-.34,0-.67-.18-.85-.47l-4.84-7.74,5.27,2.4c.13.06.27.09.41.09s.28-.03.41-.09l5.27-2.4-4.84,7.74c-.18.29-.5.47-.85.47Z"/>
</svg>