<?xml version="1.0" encoding="UTF-8"?>
<svg id="OBJECT" xmlns="http://www.w3.org/2000/svg" viewBox="0 0 32 32">
  <defs>
    <style>
      .cls-1 {
        stroke-width: 0px;
      }
    </style>
  </defs>
  <polygon class="cls-1" points="14 16 16 19 18 16 16 13 14 16"/>
  <path class="cls-1" d="m16,8.5c-4.14,0-7.5,3.36-7.5,7.5s3.36,7.5,7.5,7.5,7.5-3.36,7.5-7.5-3.36-7.5-7.5-7.5Zm4.03,8.05l-3.2,4.8c-.19.28-.5.45-.83.45s-.65-.17-.83-.45l-3.2-4.8c-.22-.34-.22-.77,0-1.11l3.2-4.8c.37-.56,1.29-.56,1.66,0l3.2,4.8c.22.34.22.77,0,1.11Z"/>
  <path class="cls-1" d="m30,12.5h-2.01c-.25-.87-.6-1.71-1.04-2.5l1.42-1.42c.19-.19.29-.44.29-.71s-.11-.52-.29-.71l-3.54-3.54c-.39-.39-1.02-.39-1.41,0l-1.42,1.42c-.8-.44-1.64-.79-2.5-1.04v-2c0-.55-.45-1-1-1h-5c-.55,0-1,.45-1,1v2c-.87.25-1.71.6-2.5,1.04l-1.42-1.42c-.39-.39-1.02-.39-1.41,0l-3.54,3.54c-.39.39-.39,1.02,0,1.41l1.42,1.42c-.44.8-.79,1.64-1.04,2.5h-2.01c-.55,0-1,.45-1,1v5c0,.55.45,1,1,1h2.01c.25.87.6,1.71,1.04,2.5l-1.42,1.42c-.39.39-.39,1.02,0,1.41l3.54,3.54c.39.39,1.02.39,1.41,0l1.42-1.42c.8.44,1.64.79,2.5,1.04v2c0,.55.45,1,1,1h5c.55,0,1-.45,1-1v-2c.87-.25,1.71-.6,2.5-1.04l1.42,1.42c.39.39,1.02.39,1.41,0l3.54-3.54c.19-.19.29-.44.29-.71s-.11-.52-.29-.71l-1.42-1.42c.44-.8.79-1.64,1.04-2.5h2.01c.55,0,1-.45,1-1v-5c0-.55-.45-1-1-1Zm-14,13c-5.24,0-9.5-4.26-9.5-9.5s4.26-9.5,9.5-9.5,9.5,4.26,9.5,9.5-4.26,9.5-9.5,9.5Z"/>
</svg>