<?xml version="1.0" encoding="UTF-8"?>
<svg id="OBJECT" xmlns="http://www.w3.org/2000/svg" viewBox="0 0 32 32">
  <defs>
    <style>
      .cls-1 {
        stroke-width: 0px;
      }
    </style>
  </defs>
  <path class="cls-1" d="m30,13h-4.16v7.19l1.86,1.82c.19.19.3.45.3.72v3.22c0,.55-.45,1-1,1s-1-.45-1-1v-2.8l-1.86-1.82c-.19-.19-.3-.45-.3-.72v-3.76l-2.92,1.68v7.47c0,.55-.45,1-1,1s-1-.45-1-1v-2.17l-3.27,1.24c-.39.15-.65.52-.65.94v5h16V14c0-.55-.45-1-1-1Z"/>
  <rect class="cls-1" x=".97" y="15.22" width="4.09" height="1.58" transform="translate(-10.44 6.82) rotate(-45)"/>
  <rect class="cls-1" x="3.78" y="7.3" width="14.31" height="1.58" transform="translate(-2.52 10.1) rotate(-45)"/>
  <path class="cls-1" d="m16.09,18.02s.03,0,.05,0c.39-.02.73-.26.88-.62,2.17-5.36.32-8.97-.88-10.57l-4.7,4.7c1.51,1.89,3.14,4.76,3.77,5.96.17.33.51.54.89.54Z"/>
  <path class="cls-1" d="m1.53,3.82c1.2.63,4.06,2.26,5.96,3.77l4.7-4.7C10.6,1.68,6.98-.17,1.62,2c-.36.15-.6.49-.62.88-.02.39.19.75.53.93Z"/>
</svg>