<?xml version="1.0" encoding="UTF-8"?>
<svg id="OBJECT" xmlns="http://www.w3.org/2000/svg" viewBox="0 0 32 32">
  <defs>
    <style>
      .cls-1 {
        stroke-width: 0px;
      }
    </style>
  </defs>
  <path class="cls-1" d="m9,8c0,.55.45,1,1,1h12c.55,0,1-.45,1-1s-.45-1-1-1h-.61l1.56-4.68c.12-.36.03-.76-.24-1.02-.27-.27-.66-.36-1.02-.24-3.66,1.22-7.7,1.22-11.37,0-.36-.12-.76-.03-1.02.24-.27.27-.36.66-.24,1.02l1.56,4.68h-.61c-.55,0-1,.45-1,1Z"/>
  <path class="cls-1" d="m24.28,13.35l-2.74-2.35h-11.07l-2.74,2.35c-2.37,2.03-3.72,4.98-3.72,8.09v5.65c0,2.15,1.75,3.91,3.91,3.91.76,0,1.48-.23,2.09-.62v-3.38c0-.55.45-1,1-1s1,.45,1,1v2.72c2.52,1.29,5.48,1.29,8,0v-2.72c0-.55.45-1,1-1s1,.45,1,1v3.38c.61.39,1.33.62,2.09.62,2.15,0,3.91-1.75,3.91-3.91v-5.65c0-3.12-1.36-6.06-3.72-8.09Zm-3.96,6.72l-3.5,5c-.19.27-.49.43-.82.43s-.63-.16-.82-.43l-3.5-5c-.24-.34-.24-.8,0-1.15l3.5-5c.38-.54,1.26-.54,1.64,0l3.5,5c.24.34.24.8,0,1.15Z"/>
  <polygon class="cls-1" points="13.72 19.5 16 22.76 18.28 19.5 16 16.24 13.72 19.5"/>
</svg>