<?xml version="1.0" encoding="UTF-8"?>
<svg id="OBJECT" xmlns="http://www.w3.org/2000/svg" viewBox="0 0 32 32">
  <defs>
    <style>
      .cls-1 {
        stroke-width: 0px;
      }
    </style>
  </defs>
  <path class="cls-1" d="m17,24.16v-1.21c-.33.03-.66.05-1,.05s-.67-.02-1-.05v1.21c-1.44.43-2.5,1.76-2.5,3.34,0,1.93,1.57,3.5,3.5,3.5s3.5-1.57,3.5-3.5c0-1.58-1.06-2.9-2.5-3.34Z"/>
  <path class="cls-1" d="m27.52,26.15l-.39-.24c-.47-.29-1.09-.14-1.38.33s-.14,1.09.33,1.38l.39.24c.16.1.34.15.52.15.34,0,.66-.17.85-.48.29-.47.14-1.09-.33-1.38Z"/>
  <path class="cls-1" d="m24.52,24.3l-2.55-1.57c-.3-.18-.48-.5-.48-.85v-.23c-.61.32-1.26.59-1.93.8.16.81.63,1.53,1.35,1.98l2.55,1.57c.16.1.34.15.52.15.34,0,.66-.17.85-.48.29-.47.14-1.09-.33-1.38Z"/>
  <path class="cls-1" d="m4.86,25.91l-.39.24c-.47.29-.62.91-.33,1.38.19.31.52.48.85.48.18,0,.36-.05.52-.15l.39-.24c.47-.29.62-.91.33-1.38s-.91-.62-1.38-.33Z"/>
  <path class="cls-1" d="m10.5,21.88c0,.35-.18.67-.48.85l-2.55,1.57c-.47.29-.62.91-.33,1.38.19.31.52.48.85.48.18,0,.36-.05.52-.15l2.55-1.57c.73-.45,1.2-1.17,1.35-1.98-.67-.21-1.31-.48-1.93-.8v.23Z"/>
  <path class="cls-1" d="m30,10h-1c-.55,0-1,.45-1,1s.45,1,1,1h1c.55,0,1-.45,1-1s-.45-1-1-1Z"/>
  <path class="cls-1" d="m28.07,7.25c.17,0,.34-.04.5-.13l.87-.5c.48-.28.64-.89.37-1.37-.28-.48-.89-.64-1.37-.37l-.87.5c-.48.28-.64.89-.37,1.37.19.32.52.5.87.5Z"/>
  <path class="cls-1" d="m29.43,15.38l-.87-.5c-.48-.28-1.09-.11-1.37.37s-.11,1.09.37,1.37l.87.5c.16.09.33.13.5.13.35,0,.68-.18.87-.5.28-.48.11-1.09-.37-1.37Z"/>
  <path class="cls-1" d="m4,11c0-.55-.45-1-1-1h-1c-.55,0-1,.45-1,1s.45,1,1,1h1c.55,0,1-.45,1-1Z"/>
  <path class="cls-1" d="m2.57,6.62l.87.5c.16.09.33.13.5.13.35,0,.68-.18.87-.5.28-.48.11-1.09-.37-1.37l-.87-.5c-.48-.28-1.09-.11-1.37.37-.28.48-.11,1.09.37,1.37Z"/>
  <path class="cls-1" d="m4.8,15.25c-.28-.48-.89-.64-1.37-.37l-.87.5c-.48.28-.64.89-.37,1.37.19.32.52.5.87.5.17,0,.34-.04.5-.13l.87-.5c.48-.28.64-.89.37-1.37Z"/>
  <path class="cls-1" d="m24.68,6.05c-.89-1.55-2.18-2.84-3.73-3.73.26.96.47,2,.64,3.09,1.1.17,2.13.38,3.09.64Z"/>
  <path class="cls-1" d="m19.53,5.16c-.24-1.42-.57-2.71-.98-3.82-.82-.22-1.67-.34-2.55-.34s-1.73.13-2.55.34c-.41,1.11-.74,2.4-.98,3.82,1.14-.1,2.32-.16,3.53-.16s2.39.06,3.53.16Z"/>
  <path class="cls-1" d="m22,11c0,1.21-.06,2.39-.16,3.53,1.42-.24,2.71-.57,3.82-.98.22-.82.34-1.67.34-2.55s-.13-1.73-.34-2.55c-1.11-.41-2.4-.74-3.82-.98.1,1.14.16,2.32.16,3.53Z"/>
  <path class="cls-1" d="m16,15c1.31,0,2.58-.07,3.8-.2.13-1.22.2-2.49.2-3.8s-.07-2.58-.2-3.8c-1.22-.13-2.49-.2-3.8-.2s-2.58.07-3.8.2c-.13,1.22-.2,2.49-.2,3.8s.07,2.58.2,3.8c1.22.13,2.49.2,3.8.2Z"/>
  <path class="cls-1" d="m10.16,14.53c-.1-1.14-.16-2.32-.16-3.53s.06-2.39.16-3.53c-1.42.24-2.71.57-3.82.98-.22.82-.34,1.67-.34,2.55s.13,1.73.34,2.55c1.11.41,2.4.74,3.82.98Z"/>
  <path class="cls-1" d="m12.47,16.84c.24,1.42.57,2.71.98,3.82.82.22,1.67.34,2.55.34s1.73-.13,2.55-.34c.41-1.11.74-2.4.98-3.82-1.14.1-2.32.16-3.53.16s-2.39-.06-3.53-.16Z"/>
  <path class="cls-1" d="m11.05,2.32c-1.55.89-2.84,2.18-3.73,3.73.96-.26,2-.47,3.09-.64.17-1.1.38-2.13.64-3.09Z"/>
  <path class="cls-1" d="m24.68,15.95c-.96.26-2,.47-3.09.64-.17,1.1-.38,2.13-.64,3.09,1.55-.89,2.84-2.18,3.73-3.73Z"/>
  <path class="cls-1" d="m7.32,15.95c.89,1.55,2.18,2.84,3.73,3.73-.26-.96-.47-2-.64-3.09-1.1-.17-2.13-.38-3.09-.64Z"/>
</svg>