<?xml version="1.0" encoding="UTF-8"?>
<svg id="OBJECT" xmlns="http://www.w3.org/2000/svg" viewBox="0 0 32 32">
  <defs>
    <style>
      .cls-1 {
        stroke-width: 0px;
      }
    </style>
  </defs>
  <path class="cls-1" d="m13.5,5c0-1.1.9-2,2-2h1c1.1,0,2,.9,2,2v2h2v-2c0-2.21-1.79-4-4-4h-1c-2.21,0-4,1.79-4,4v2h2v-2Z"/>
  <path class="cls-1" d="m10,17h12c1.1,0,2-.9,2-2v-4c0-1.1-.9-2-2-2h-12c-1.1,0-2,.9-2,2v4c0,1.1.9,2,2,2Zm5.5-5h1c.55,0,1,.45,1,1s-.45,1-1,1h-1c-.55,0-1-.45-1-1s.45-1,1-1Z"/>
  <path class="cls-1" d="m29,19H3c-1.1,0-2,.9-2,2v8c0,1.1.9,2,2,2h26c1.1,0,2-.9,2-2v-8c0-1.1-.9-2-2-2Zm-19,7h-1v1c0,.55-.45,1-1,1s-1-.45-1-1v-1h-1c-.55,0-1-.45-1-1s.45-1,1-1h1v-1c0-.55.45-1,1-1s1,.45,1,1v1h1c.55,0,1,.45,1,1s-.45,1-1,1Zm8,0h-1v1c0,.55-.45,1-1,1s-1-.45-1-1v-1h-1c-.55,0-1-.45-1-1s.45-1,1-1h1v-1c0-.55.45-1,1-1s1,.45,1,1v1h1c.55,0,1,.45,1,1s-.45,1-1,1Zm8,0h-1v1c0,.55-.45,1-1,1s-1-.45-1-1v-1h-1c-.55,0-1-.45-1-1s.45-1,1-1h1v-1c0-.55.45-1,1-1s1,.45,1,1v1h1c.55,0,1,.45,1,1s-.45,1-1,1Z"/>
</svg>