<?xml version="1.0" encoding="UTF-8"?>
<svg id="OBJECT" xmlns="http://www.w3.org/2000/svg" viewBox="0 0 32 32">
  <defs>
    <style>
      .cls-1 {
        stroke-width: 0px;
      }
    </style>
  </defs>
  <path class="cls-1" d="m20,4h3c.55,0,1,.45,1,1v1.59l-1.29-1.29c-.39-.39-1.02-.39-1.41,0s-.39,1.02,0,1.41l3,3c.2.2.45.29.71.29s.51-.1.71-.29l3-3c.39-.39.39-1.02,0-1.41s-1.02-.39-1.41,0l-1.29,1.29v-1.59c0-1.65-1.35-3-3-3h-3c-.55,0-1,.45-1,1s.45,1,1,1Z"/>
  <path class="cls-1" d="m16.5,2h-.5c-.55,0-1,.45-1,1s.45,1,1,1h.5c.55,0,1-.45,1-1s-.45-1-1-1Z"/>
  <path class="cls-1" d="m12,28h-3c-.55,0-1-.45-1-1v-1.59l1.29,1.29c.2.2.45.29.71.29s.51-.1.71-.29c.39-.39.39-1.02,0-1.41l-3-3c-.39-.39-1.02-.39-1.41,0l-3,3c-.39.39-.39,1.02,0,1.41s1.02.39,1.41,0l1.29-1.29v1.59c0,1.65,1.35,3,3,3h3c.55,0,1-.45,1-1s-.45-1-1-1Z"/>
  <path class="cls-1" d="m16,28h-.5c-.55,0-1,.45-1,1s.45,1,1,1h.5c.55,0,1-.45,1-1s-.45-1-1-1Z"/>
  <path class="cls-1" d="m11,1H3c-1.1,0-2,.9-2,2v13h12V3c0-1.1-.9-2-2-2Zm-3.5,4h-1c-.55,0-1-.45-1-1s.45-1,1-1h1c.55,0,1,.45,1,1s-.45,1-1,1Z"/>
  <path class="cls-1" d="m1,19c0,1.1.9,2,2,2h8c1.1,0,2-.9,2-2v-1H1v1Z"/>
  <path class="cls-1" d="m29,11h-8c-1.1,0-2,.9-2,2v13h12v-13c0-1.1-.9-2-2-2Zm-3.5,4h-1c-.55,0-1-.45-1-1s.45-1,1-1h1c.55,0,1,.45,1,1s-.45,1-1,1Z"/>
  <path class="cls-1" d="m19,29c0,1.1.9,2,2,2h8c1.1,0,2-.9,2-2v-1h-12v1Z"/>
</svg>