<?xml version="1.0" encoding="UTF-8"?>
<svg id="OBJECT" xmlns="http://www.w3.org/2000/svg" viewBox="0 0 32 32">
  <defs>
    <style>
      .cls-1 {
        stroke-width: 0px;
      }
    </style>
  </defs>
  <path class="cls-1" d="m30.71,8.44l-7.16-7.16c-.38-.38-1.04-.38-1.41,0l-4.31,4.31,8.57,8.57,4.31-4.31c.39-.39.39-1.02,0-1.41Zm-7.34-1.26l-.36.36c-.2.19-.45.29-.71.29s-.51-.1-.71-.29c-.39-.39-.39-1.02,0-1.41l.36-.36c.39-.39,1.02-.39,1.42,0,.39.39.39,1.02,0,1.41Zm2.86,2.86l-.36.36c-.2.2-.45.29-.71.29s-.51-.1-.71-.29c-.39-.39-.39-1.02,0-1.41l.36-.36c.39-.39,1.02-.39,1.42,0,.39.39.39,1.02,0,1.41Z"/>
  <path class="cls-1" d="m7.82,21.32s0,0,0,0l-4.28-4.28-1.8,1.8c-.98.98-.98,2.58,0,3.56l7.87,7.87c.48.48,1.11.74,1.78.74s1.31-.26,1.78-.74l1.8-1.8-7.15-7.15s0,0,0,0Z"/>
  <path class="cls-1" d="m4.95,15.62l3.58,3.58,1.68-1.68c.26-.26.64-.36,1-.25l3.82,1.16,1.38-1.38c.39-.39,1.02-.39,1.41,0s.39,1.02,0,1.41l-1.81,1.8c-.26.26-.64.35-1,.25l-3.82-1.16-1.26,1.26,6.44,6.44,10.04-10.04L14.99,5.58,4.95,15.62Zm13.96-1.08l.36-.36c.39-.39,1.02-.39,1.42,0,.39.39.39,1.02,0,1.41l-.36.36c-.2.2-.45.29-.71.29s-.51-.1-.71-.29c-.39-.39-.39-1.02,0-1.41Zm-3.4-5.55c.39-.39,1.02-.39,1.41,0l.72.72c.39.39.39,1.02,0,1.41-.2.2-.45.29-.71.29s-.51-.1-.71-.29l-.72-.72c-.39-.39-.39-1.02,0-1.41Z"/>
</svg>