<?xml version="1.0" encoding="UTF-8"?>
<svg id="OBJECT" xmlns="http://www.w3.org/2000/svg" viewBox="0 0 32 32">
  <defs>
    <style>
      .cls-1 {
        stroke-width: 0px;
      }
    </style>
  </defs>
  <path class="cls-1" d="m16.03,1c-.56,0-1.03.43-1.03.99v15.01h7v-4.37l-2.63-1.71c-.28-.18-.46-.5-.46-.84v-3.09c0-.55.45-1,1-1s1,.45,1,1v2.54l2.63,1.71c.28.18.46.5.46.84v4.91h6c.56,0,1-.46,1-1.03-.01-8.25-6.72-14.96-14.97-14.97Z"/>
  <path class="cls-1" d="m13,10c0-.55-.45-1-1-1-3,0-5.8,1.18-7.89,3.33-2.09,2.15-3.19,4.98-3.11,7.98.07,2.52,1.03,4.85,2.58,6.69l9.42-9.42v-7.59Z"/>
  <path class="cls-1" d="m22,19h-7.59l-9.42,9.42c1.84,1.54,4.18,2.51,6.69,2.58.1,0,.21,0,.31,0,2.88,0,5.59-1.1,7.67-3.11,2.15-2.09,3.33-4.89,3.33-7.89,0-.55-.45-1-1-1Z"/>
</svg>