<?xml version="1.0" encoding="UTF-8"?>
<svg id="OBJECT" xmlns="http://www.w3.org/2000/svg" viewBox="0 0 32 32">
  <defs>
    <style>
      .cls-1 {
        stroke-width: 0px;
      }
    </style>
  </defs>
  <path class="cls-1" d="m29,1H3c-1.1,0-2,.9-2,2v2h30v-2c0-1.1-.9-2-2-2Z"/>
  <polygon class="cls-1" points="13.38 15.86 11 12.29 8.62 15.86 11 16.45 13.38 15.86"/>
  <path class="cls-1" d="m11,18.49c-.08,0-.16,0-.24-.03l-1.49-.37,1.73,2.6,1.73-2.6-1.49.37c-.08.02-.16.03-.24.03Z"/>
  <path class="cls-1" d="m2.5,24c0,1.1.9,2,2,2h10.5v3h-1c-.55,0-1,.45-1,1s.45,1,1,1h4c.55,0,1-.45,1-1s-.45-1-1-1h-1v-3h10.5c1.1,0,2-.9,2-2V7H2.5v17Zm16.5-11.51h3c.55,0,1,.45,1,1s-.45,1-1,1h-3c-.55,0-1-.45-1-1s.45-1,1-1Zm0,4h6c.55,0,1,.45,1,1s-.45,1-1,1h-6c-.55,0-1-.45-1-1s.45-1,1-1Zm0,4h6c.55,0,1,.45,1,1s-.45,1-1,1h-6c-.55,0-1-.45-1-1s.45-1,1-1Zm-12.83-4.55l4-6c.37-.56,1.29-.56,1.66,0l4,6c.22.34.22.77,0,1.11l-4,6c-.19.28-.5.45-.83.45s-.65-.17-.83-.45l-4-6c-.22-.34-.22-.77,0-1.11Z"/>
</svg>