<?xml version="1.0" encoding="UTF-8"?>
<svg id="OBJECT" xmlns="http://www.w3.org/2000/svg" viewBox="0 0 32 32">
  <defs>
    <style>
      .cls-1 {
        stroke-width: 0px;
      }
    </style>
  </defs>
  <path class="cls-1" d="m20.05,8.58l-3.05-1.15v-3.43c0-1.65-1.35-3-3-3h-2c-1.65,0-3,1.35-3,3v6c0,1.65,1.35,3,3,3h2c.55,0,1-.45,1-1s-.45-1-1-1h-2c-.55,0-1-.45-1-1v-6c0-.55.45-1,1-1h2c.55,0,1,.45,1,1v2.68l-.95-.35c-.34-.13-.69-.19-1.05-.19v2.86h1c1.65,0,3,1.35,3,3s-1.35,3-3,3h-2c-2.76,0-5-2.24-5-5v-1.82l-1.05.4c-1.17.43-1.95,1.56-1.95,2.81v16.61c0,1.65,1.35,3,3,3h12c1.65,0,3-1.35,3-3V11.39c0-1.25-.78-2.38-1.95-2.81Zm-3.19,14.93l-3,5c-.18.31-.51.49-.86.49s-.68-.18-.86-.49l-3-5c-.19-.31-.19-.71,0-1.02l3-5c.36-.61,1.36-.61,1.72,0l3,5c.19.31.19.71,0,1.02Z"/>
  <path class="cls-1" d="m24.83,12.92c-.14-.51-.43-.96-.83-1.28v9.68l2.86-.82-2.03-7.58Z"/>
  <path class="cls-1" d="m27.91,24.44l-.54-2.01-3.37.97v4.71l2.13-.57c.65-.17,1.2-.59,1.53-1.18.34-.58.43-1.27.25-1.92Z"/>
  <polygon class="cls-1" points="11.17 23 13 26.06 14.83 23 13 19.94 11.17 23"/>
</svg>