<?xml version="1.0" encoding="UTF-8"?>
<svg id="OBJECT" xmlns="http://www.w3.org/2000/svg" viewBox="0 0 32 32">
  <defs>
    <style>
      .cls-1 {
        stroke-width: 0px;
      }
    </style>
  </defs>
  <path class="cls-1" d="m30,29H5c-.55,0-1,.45-1,1s.45,1,1,1h25c.55,0,1-.45,1-1s-.45-1-1-1Z"/>
  <path class="cls-1" d="m28.5,11c0-1.1-.9-2-2-2h-2c-1.1,0-2,.9-2,2v16h6V11Z"/>
  <path class="cls-1" d="m20.5,18c0-1.1-.9-2-2-2h-2c-1.1,0-2,.9-2,2v9h6v-9Z"/>
  <path class="cls-1" d="m10.5,21h-2c-1.1,0-2,.9-2,2v4h6v-4c0-1.1-.9-2-2-2Z"/>
  <path class="cls-1" d="m12.07,8.7L7.54,1.44c-.37-.58-1.33-.58-1.7,0L1.3,8.7l5.38,2.45,5.38-2.45Z"/>
  <path class="cls-1" d="m6.69,18.97c.34,0,.67-.18.85-.47l4.84-7.74-5.27,2.4c-.13.06-.27.09-.41.09s-.28-.03-.41-.09l-5.27-2.4,4.84,7.74c.18.29.5.47.85.47Z"/>
</svg>