<?xml version="1.0" encoding="UTF-8"?>
<svg id="OBJECT" xmlns="http://www.w3.org/2000/svg" viewBox="0 0 32 32">
  <defs>
    <style>
      .cls-1 {
        stroke-width: 0px;
      }
    </style>
  </defs>
  <path class="cls-1" d="m10.4,15.4c-.13.06-.27.09-.4.09s-.28-.03-.4-.09l-1.45-.64,1.86,2.89,1.86-2.89-1.45.64Z"/>
  <polygon class="cls-1" points="10 13.4 13.03 12.06 10 7.35 6.97 12.06 10 13.4"/>
  <path class="cls-1" d="m28,1H4c-1.65,0-3,1.35-3,3v24c0,1.65,1.35,3,3,3h24c1.65,0,3-1.35,3-3V4c0-1.65-1.35-3-3-3ZM11,26.5c0,.55-.45,1-1,1s-1-.45-1-1v-3c0-.55.45-1,1-1s1,.45,1,1v3Zm4.34-13.46l-4.5,7c-.18.29-.5.46-.84.46s-.66-.17-.84-.46l-4.5-7c-.21-.33-.21-.75,0-1.08l4.5-7c.37-.57,1.31-.57,1.68,0l4.5,7c.21.33.21.75,0,1.08Zm3.16,13.46c0,.55-.45,1-1,1s-1-.45-1-1V9.5c0-.55.45-1,1-1s1,.45,1,1v17Zm0-20c0,.55-.45,1-1,1s-1-.45-1-1v-1c0-.55.45-1,1-1s1,.45,1,1v1Zm4.5,20c0,.55-.45,1-1,1s-1-.45-1-1v-1c0-.55.45-1,1-1s1,.45,1,1v1Zm0-4c0,.55-.45,1-1,1s-1-.45-1-1V5.5c0-.55.45-1,1-1s1,.45,1,1v17Zm4.5,4c0,.55-.45,1-1,1s-1-.45-1-1V9.5c0-.55.45-1,1-1s1,.45,1,1v17Zm0-20c0,.55-.45,1-1,1s-1-.45-1-1v-1c0-.55.45-1,1-1s1,.45,1,1v1Z"/>
</svg>