<?xml version="1.0" encoding="UTF-8"?>
<svg id="OBJECT" xmlns="http://www.w3.org/2000/svg" viewBox="0 0 32 32">
  <defs>
    <style>
      .cls-1 {
        stroke-width: 0px;
      }
    </style>
  </defs>
  <path class="cls-1" d="m24.9,6.05H7.1c-.6,0-1.1.49-1.1,1.1v15.71c0,.6.49,1.1,1.1,1.1h17.81c.6,0,1.1-.49,1.1-1.1V7.14c0-.6-.49-1.1-1.1-1.1Zm-3.58,9.52l-4.5,6.5c-.19.27-.49.43-.82.43s-.64-.16-.82-.43l-4.5-6.5c-.24-.34-.24-.8,0-1.14l4.5-6.5c.37-.54,1.27-.54,1.64,0l4.5,6.5c.24.34.24.8,0,1.14Z"/>
  <polygon class="cls-1" points="16 15.77 18.97 14.55 16 10.26 13.03 14.55 16 15.77"/>
  <path class="cls-1" d="m16.38,17.77c-.12.05-.25.08-.38.08s-.26-.02-.38-.08l-1.38-.56,1.76,2.54,1.76-2.54-1.38.56Z"/>
  <path class="cls-1" d="m30,1H2c-.55,0-1,.45-1,1v28c0,.55.45,1,1,1s1-.45,1-1v-1h26v1c0,.55.45,1,1,1s1-.45,1-1V2c0-.55-.45-1-1-1Zm-2,21.86c0,1.71-1.39,3.1-3.1,3.1H7.1c-1.71,0-3.1-1.39-3.1-3.1V7.14c0-1.71,1.39-3.1,3.1-3.1h17.81c1.71,0,3.1,1.39,3.1,3.1v15.71Z"/>
</svg>