<?xml version="1.0" encoding="UTF-8"?>
<svg id="OBJECT" xmlns="http://www.w3.org/2000/svg" viewBox="0 0 32 32">
  <defs>
    <style>
      .cls-1 {
        stroke-width: 0px;
      }
    </style>
  </defs>
  <path class="cls-1" d="m26.23,11.88c-.13.06-.27.09-.4.09s-.28-.03-.4-.09l-4.77-2.11,4.34,6.75c.18.29.5.46.84.46s.66-.17.84-.46l4.34-6.75-4.77,2.11Z"/>
  <path class="cls-1" d="m30.7,7.71l-4.04-6.28c-.37-.57-1.31-.57-1.68,0l-4.04,6.28,4.88,2.16,4.88-2.16Z"/>
  <path class="cls-1" d="m24.97,25.41l-4.55,4.55.25.25c.5.5,1.17.78,1.88.78s1.38-.28,1.88-.78l.78-.78c1.04-1.04,1.04-2.73,0-3.77l-.25-.25Z"/>
  <path class="cls-1" d="m21.44,21.89c-1.08,1.9-2.65,3.48-4.55,4.55l2.11,2.11,4.55-4.55-2.11-2.11Z"/>
  <path class="cls-1" d="m21,16c0-5.51-4.49-10-10-10S1,10.49,1,16s4.49,10,10,10,10-4.49,10-10Zm-10,7c-3.86,0-7-3.14-7-7s3.14-7,7-7,7,3.14,7,7-3.14,7-7,7Z"/>
  <path class="cls-1" d="m11,11c-2.76,0-5,2.24-5,5s2.24,5,5,5,5-2.24,5-5-2.24-5-5-5Zm2.93,4.32l-2.77,2.77c-.2.2-.45.29-.71.29s-.51-.1-.71-.29l-1.67-1.67c-.39-.39-.39-1.02,0-1.41s1.02-.39,1.41,0l.96.96,2.06-2.06c.39-.39,1.02-.39,1.41,0s.39,1.02,0,1.41Z"/>
</svg>