<?xml version="1.0" encoding="UTF-8"?>
<svg id="OBJECT" xmlns="http://www.w3.org/2000/svg" viewBox="0 0 32 32">
  <defs>
    <style>
      .cls-1 {
        stroke-width: 0px;
      }
    </style>
  </defs>
  <path class="cls-1" d="m14,20.5c0-5.24,4.26-9.5,9.5-9.5.51,0,1.01.05,1.5.13v-6.13c0-.28-.12-.55-.32-.74-.21-.19-.48-.29-.76-.26-3.62.29-4.8-2.27-4.85-2.39-.16-.37-.52-.61-.92-.61H7.85c-.4,0-.76.24-.92.61-.05.11-1.21,2.69-4.85,2.4-.28-.02-.55.07-.76.26-.21.19-.32.46-.32.74v10.12c0,5.91,3.23,11.31,8.44,14.1l3.09,1.66c.15.08.31.12.47.12s.32-.04.47-.12l3.09-1.66c.53-.28,1.03-.6,1.52-.94-2.46-1.72-4.08-4.57-4.08-7.79ZM4.5,8.13c0-.55.45-1,1-1s1,.45,1,1v.5c0,.55-.45,1-1,1s-1-.45-1-1v-.5Zm7.95,17.6c-.18.34-.53.53-.88.53-.16,0-.32-.04-.47-.12-4.07-2.18-6.59-6.4-6.59-11.02v-2.99c0-.55.45-1,1-1s1,.45,1,1v2.99c0,3.88,2.12,7.42,5.54,9.25.49.26.67.87.41,1.35Z"/>
  <polygon class="cls-1" points="21.7 20.5 23.5 23.2 25.3 20.5 23.5 17.8 21.7 20.5"/>
  <path class="cls-1" d="m23.5,13c-4.14,0-7.5,3.36-7.5,7.5s3.36,7.5,7.5,7.5,7.5-3.36,7.5-7.5-3.36-7.5-7.5-7.5Zm3.83,8.05l-3,4.5c-.19.28-.5.45-.83.45s-.65-.17-.83-.45l-3-4.5c-.22-.34-.22-.77,0-1.11l3-4.5c.37-.56,1.29-.56,1.66,0l3,4.5c.22.34.22.77,0,1.11Z"/>
</svg>