<?xml version="1.0" encoding="UTF-8"?>
<svg id="OBJECT" xmlns="http://www.w3.org/2000/svg" viewBox="0 0 32 32">
  <defs>
    <style>
      .cls-1 {
        stroke-width: 0px;
      }
    </style>
  </defs>
  <path class="cls-1" d="m26.23,25.91c-.13.06-.27.08-.4.08s-.28-.03-.4-.08l-4.77-2.11,4.34,6.75c.18.29.5.46.84.46s.66-.17.84-.46l4.34-6.75-4.77,2.11Z"/>
  <path class="cls-1" d="m24.98,15.46l-4.04,6.28,4.88,2.16,4.88-2.16-4.04-6.28c-.37-.57-1.31-.57-1.68,0Z"/>
  <path class="cls-1" d="m11.91,16.35l2.94,8.82c.13.4.5.67.92.68h.03c.41,0,.78-.25.93-.63L25.85,2.41l-13.94,13.94Z"/>
  <path class="cls-1" d="m1.63,10.12c-.39.16-.64.54-.63.96s.29.79.68.92l8.82,2.94L24.44,1,1.63,10.12Z"/>
</svg>