<?xml version="1.0" encoding="UTF-8"?>
<svg id="OBJECT" xmlns="http://www.w3.org/2000/svg" viewBox="0 0 32 32">
  <defs>
    <style>
      .cls-1 {
        stroke-width: 0px;
      }
    </style>
  </defs>
  <path class="cls-1" d="m17,24.16v-3.16h-2v3.16c-1.44.43-2.5,1.76-2.5,3.34,0,1.93,1.57,3.5,3.5,3.5s3.5-1.57,3.5-3.5c0-1.58-1.06-2.9-2.5-3.34Z"/>
  <path class="cls-1" d="m30.02,26.15l-.39-.24c-.47-.29-1.09-.14-1.38.33-.29.47-.14,1.09.33,1.38l.39.24c.16.1.34.15.52.15.34,0,.66-.17.85-.48.29-.47.14-1.09-.33-1.38Z"/>
  <path class="cls-1" d="m27.02,24.3l-2.55-1.57c-.3-.18-.48-.5-.48-.85v-.88h-2v.88c0,1.05.53,2,1.43,2.56l2.55,1.57c.16.1.34.15.52.15.34,0,.66-.17.85-.48.29-.47.14-1.09-.33-1.38Z"/>
  <path class="cls-1" d="m2.36,25.91l-.39.24c-.47.29-.62.91-.33,1.38.19.31.52.48.85.48.18,0,.36-.05.52-.15l.39-.24c.47-.29.62-.91.33-1.38-.29-.47-.91-.62-1.38-.33Z"/>
  <path class="cls-1" d="m8,21.88c0,.35-.18.67-.48.85l-2.55,1.57c-.47.29-.62.91-.33,1.38.19.31.52.48.85.48.18,0,.36-.05.52-.15l2.55-1.57c.89-.55,1.43-1.51,1.43-2.56v-.88h-2v.88Z"/>
  <path class="cls-1" d="m29,1H3c-1.1,0-2,.9-2,2v4c0,1.1.9,2,2,2h26c1.1,0,2-.9,2-2V3c0-1.1-.9-2-2-2ZM6.5,5.5c0,.55-.45,1-1,1s-1-.45-1-1v-1c0-.55.45-1,1-1s1,.45,1,1v1Zm4,0c0,.55-.45,1-1,1s-1-.45-1-1v-1c0-.55.45-1,1-1s1,.45,1,1v1Zm16,.5h-13c-.55,0-1-.45-1-1s.45-1,1-1h13c.55,0,1,.45,1,1s-.45,1-1,1Z"/>
  <path class="cls-1" d="m29,11H3c-1.1,0-2,.9-2,2v4c0,1.1.9,2,2,2h26c1.1,0,2-.9,2-2v-4c0-1.1-.9-2-2-2ZM6.5,15.5c0,.55-.45,1-1,1s-1-.45-1-1v-1c0-.55.45-1,1-1s1,.45,1,1v1Zm4,0c0,.55-.45,1-1,1s-1-.45-1-1v-1c0-.55.45-1,1-1s1,.45,1,1v1Zm16,.5h-13c-.55,0-1-.45-1-1s.45-1,1-1h13c.55,0,1,.45,1,1s-.45,1-1,1Z"/>
</svg>