<?xml version="1.0" encoding="UTF-8"?>
<svg id="OBJECT" xmlns="http://www.w3.org/2000/svg" viewBox="0 0 32 32">
  <defs>
    <style>
      .cls-1 {
        stroke-width: 0px;
      }
    </style>
  </defs>
  <path class="cls-1" d="m29,15H3c-1.1,0-2,.9-2,2v2h30v-2c0-1.1-.9-2-2-2Z"/>
  <path class="cls-1" d="m28.25,3c0-1.1-.9-2-2-2s-2,.9-2,2v10h4V3Z"/>
  <path class="cls-1" d="m7.75,3c0-1.1-.9-2-2-2s-2,.9-2,2v10h4V3Z"/>
  <path class="cls-1" d="m15.28,12.61c.15.25.42.41.72.41s.57-.15.72-.41l2.51-4.18c.16-.26.16-.6,0-.86l-2.51-4.18c-.3-.5-1.13-.5-1.43,0l-2.51,4.18c-.16.26-.16.6,0,.86l2.51,4.18Z"/>
  <path class="cls-1" d="m5.11,28.86c.38,1.28,1.54,2.14,2.87,2.14h16.02c1.33,0,2.49-.86,2.87-2.14l2.36-7.86H2.76l2.36,7.86Zm14.89-5.36c0-.55.45-1,1-1s1,.45,1,1v3c0,.55-.45,1-1,1s-1-.45-1-1v-3Zm-5,0c0-.55.45-1,1-1s1,.45,1,1v3c0,.55-.45,1-1,1s-1-.45-1-1v-3Zm-5,0c0-.55.45-1,1-1s1,.45,1,1v3c0,.55-.45,1-1,1s-1-.45-1-1v-3Z"/>
</svg>