<?xml version="1.0" encoding="UTF-8"?>
<svg id="OBJECT" xmlns="http://www.w3.org/2000/svg" viewBox="0 0 32 32">
  <defs>
    <style>
      .cls-1 {
        stroke-width: 0px;
      }
    </style>
  </defs>
  <polygon class="cls-1" points="21.7 23.5 23.5 26.2 25.3 23.5 23.5 20.8 21.7 23.5"/>
  <path class="cls-1" d="m23.5,16c-4.14,0-7.5,3.36-7.5,7.5s3.36,7.5,7.5,7.5,7.5-3.36,7.5-7.5-3.36-7.5-7.5-7.5Zm3.83,8.05l-3,4.5c-.19.28-.5.45-.83.45s-.65-.17-.83-.45l-3-4.5c-.22-.34-.22-.77,0-1.11l3-4.5c.37-.56,1.29-.56,1.66,0l3,4.5c.22.34.22.77,0,1.11Z"/>
  <path class="cls-1" d="m22.13,14.11l-1.15-7.27c-.08-.49-.5-.84-.99-.84h-2.5v6c0,.55-.45,1-1,1s-1-.45-1-1v-6h-6v6c0,.55-.45,1-1,1s-1-.45-1-1v-6h-2.5c-.49,0-.91.36-.99.84l-2.08,13.16h9.07c.55,0,1,.45,1,1s-.45,1-1,1H1.62l-.61,3.84c-.05.29.04.58.23.81.19.22.47.35.76.35h12.68c-.43-1.08-.68-2.26-.68-3.5,0-4.77,3.54-8.72,8.13-9.39Z"/>
  <path class="cls-1" d="m9.5,5c0-1.1.9-2,2-2h2c1.1,0,2,.9,2,2v1h2v-1c0-2.21-1.79-4-4-4h-2c-2.21,0-4,1.79-4,4v1h2v-1Z"/>
</svg>