<?xml version="1.0" encoding="UTF-8"?>
<svg id="OBJECT" xmlns="http://www.w3.org/2000/svg" viewBox="0 0 32 32">
  <defs>
    <style>
      .cls-1 {
        stroke-width: 0px;
      }
    </style>
  </defs>
  <path class="cls-1" d="m23.5,25h-15c-.55,0-1,.45-1,1s.45,1,1,1h2v2c0,1.1.9,2,2,2h7c1.1,0,2-.9,2-2v-2h2c.55,0,1-.45,1-1s-.45-1-1-1Z"/>
  <path class="cls-1" d="m30,11h-1c-.55,0-1,.45-1,1s.45,1,1,1h1c.55,0,1-.45,1-1s-.45-1-1-1Z"/>
  <path class="cls-1" d="m28.13,7.75c.17,0,.34-.04.5-.13l.87-.5c.48-.28.64-.89.37-1.37-.28-.48-.89-.64-1.37-.37l-.87.5c-.48.28-.64.89-.37,1.37.19.32.52.5.87.5Z"/>
  <path class="cls-1" d="m29.5,16.88l-.87-.5c-.48-.28-1.09-.11-1.37.37s-.11,1.09.37,1.37l.87.5c.16.09.33.13.5.13.35,0,.68-.18.87-.5.28-.48.11-1.09-.37-1.37Z"/>
  <path class="cls-1" d="m4,12c0-.55-.45-1-1-1h-1c-.55,0-1,.45-1,1s.45,1,1,1h1c.55,0,1-.45,1-1Z"/>
  <path class="cls-1" d="m4.37,5.88l-.87-.5c-.48-.28-1.09-.11-1.37.37s-.11,1.09.37,1.37l.87.5c.16.09.33.13.5.13.35,0,.68-.18.87-.5.28-.48.11-1.09-.37-1.37Z"/>
  <path class="cls-1" d="m3.37,16.38l-.87.5c-.48.28-.64.89-.37,1.37.19.32.52.5.87.5.17,0,.34-.04.5-.13l.87-.5c.48-.28.64-.89.37-1.37-.28-.48-.89-.64-1.37-.37Z"/>
  <polygon class="cls-1" points="14.14 12 16 15.41 17.86 12 16 8.59 14.14 12"/>
  <path class="cls-1" d="m23.33,3.79c-2.33-2.08-5.47-3.08-8.61-2.72-4.9.55-8.94,4.49-9.61,9.37-.46,3.33.59,6.64,2.87,9.08.66.7,1.02,1.64,1.02,2.66v.83h14v-.83c0-1.01.37-1.96,1.04-2.68,1.91-2.04,2.96-4.7,2.96-7.49,0-3.13-1.34-6.12-3.67-8.21Zm-12.33,8.71c0,.55-.45,1-1,1s-1-.45-1-1v-1c0-.55.45-1,1-1s1,.45,1,1v1Zm8.88-.02l-3,5.5c-.17.32-.51.52-.88.52s-.7-.2-.88-.52l-3-5.5c-.16-.3-.16-.66,0-.96l3-5.5c.35-.64,1.41-.64,1.76,0l3,5.5c.16.3.16.66,0,.96Zm3.12.02c0,.55-.45,1-1,1s-1-.45-1-1v-1c0-.55.45-1,1-1s1,.45,1,1v1Z"/>
</svg>