<?xml version="1.0" encoding="UTF-8"?>
<svg id="OBJECT" xmlns="http://www.w3.org/2000/svg" viewBox="0 0 32 32">
  <defs>
    <style>
      .cls-1 {
        stroke-width: 0px;
      }
    </style>
  </defs>
  <path class="cls-1" d="m30,29h-1V9.08c-.95.58-2.06.92-3.25.92s-2.28-.32-3.25-.91c-.97.59-2.09.91-3.25.91s-2.28-.32-3.25-.91c-.97.59-2.09.91-3.25.91s-2.28-.32-3.25-.91c-.97.59-2.09.91-3.25.91s-2.3-.34-3.25-.92v19.92h-1c-.55,0-1,.45-1,1s.45,1,1,1h28c.55,0,1-.45,1-1s-.45-1-1-1Zm-6.5-9.5c0-.55.45-1,1-1s1,.45,1,1v1c0,.55-.45,1-1,1s-1-.45-1-1v-1Zm-12.84-.04l4.5-7c.37-.57,1.31-.57,1.68,0l4.5,7c.21.33.21.75,0,1.08l-4.5,7c-.18.29-.5.46-.84.46s-.66-.17-.84-.46l-4.5-7c-.21-.33-.21-.75,0-1.08Zm-4.16.04c0-.55.45-1,1-1s1,.45,1,1v1c0,.55-.45,1-1,1s-1-.45-1-1v-1Z"/>
  <path class="cls-1" d="m2,3v.75c0,2.34,1.91,4.25,4.25,4.25,1.3,0,2.47-.59,3.25-1.51.78.93,1.95,1.51,3.25,1.51s2.47-.59,3.25-1.51c.78.93,1.95,1.51,3.25,1.51s2.47-.59,3.25-1.51c.78.93,1.95,1.51,3.25,1.51,2.34,0,4.25-1.91,4.25-4.25v-.75c.55,0,1-.45,1-1s-.45-1-1-1H2c-.55,0-1,.45-1,1s.45,1,1,1Z"/>
  <path class="cls-1" d="m16,22.99c-.14,0-.28-.03-.4-.09l-1.45-.64,1.86,2.89,1.86-2.89-1.45.64c-.13.06-.27.09-.4.09Z"/>
  <polygon class="cls-1" points="19.03 19.56 16 14.85 12.97 19.56 16 20.9 19.03 19.56"/>
</svg>