<?xml version="1.0" encoding="UTF-8"?>
<svg id="OBJECT" xmlns="http://www.w3.org/2000/svg" viewBox="0 0 32 32">
  <defs>
    <style>
      .cls-1 {
        stroke-width: 0px;
      }
    </style>
  </defs>
  <path class="cls-1" d="m29,24h-.5v-1.5c0-1.38-1.12-2.5-2.5-2.5h-9v-1c0-.55-.45-1-1-1s-1,.45-1,1v1H6c-1.38,0-2.5,1.12-2.5,2.5v1.5h-.5c-1.1,0-2,.9-2,2v3c0,1.1.9,2,2,2h3c1.1,0,2-.9,2-2v-3c0-1.1-.9-2-2-2h-.5v-1.5c0-.28.22-.5.5-.5h9v2h-.5c-1.1,0-2,.9-2,2v3c0,1.1.9,2,2,2h3c1.1,0,2-.9,2-2v-3c0-1.1-.9-2-2-2h-.5v-2h9c.28,0,.5.22.5.5v1.5h-.5c-1.1,0-2,.9-2,2v3c0,1.1.9,2,2,2h3c1.1,0,2-.9,2-2v-3c0-1.1-.9-2-2-2Z"/>
  <path class="cls-1" d="m25.5,9c0,.55.45,1,1,1h1c.55,0,1-.45,1-1s-.45-1-1-1h-1c-.55,0-1,.45-1,1Z"/>
  <path class="cls-1" d="m25.63,5.89c.14,0,.28-.03.41-.09l.87-.39c.5-.23.73-.82.5-1.32-.23-.5-.82-.73-1.32-.5l-.87.39c-.5.23-.73.82-.5,1.32.17.37.53.59.91.59Z"/>
  <path class="cls-1" d="m25.22,14.02l.87.39c.13.06.27.09.41.09.38,0,.75-.22.91-.59.23-.5,0-1.1-.5-1.32l-.87-.39c-.5-.23-1.1,0-1.32.5-.23.5,0,1.1.5,1.32Z"/>
  <path class="cls-1" d="m4.5,10h1c.55,0,1-.45,1-1s-.45-1-1-1h-1c-.55,0-1,.45-1,1s.45,1,1,1Z"/>
  <path class="cls-1" d="m5.09,5.41l.87.39c.13.06.27.09.41.09.38,0,.75-.22.91-.59.23-.5,0-1.1-.5-1.32l-.87-.39c-.5-.23-1.09,0-1.32.5-.23.5,0,1.1.5,1.32Z"/>
  <path class="cls-1" d="m5.96,12.2l-.87.39c-.5.23-.73.82-.5,1.32.17.37.53.59.91.59.14,0,.28-.03.41-.09l.87-.39c.5-.23.73-.82.5-1.32-.23-.5-.82-.73-1.32-.5Z"/>
  <path class="cls-1" d="m22,4.8l-5.45-3.63c-.34-.22-.77-.22-1.11,0l-5.45,3.63,6,4,6-4Z"/>
  <path class="cls-1" d="m9.45,12.83l6,4c.17.11.36.17.55.17s.39-.06.55-.17l6-4c.28-.19.45-.5.45-.83v-5.46l-6,4v1.46c0,.55-.45,1-1,1s-1-.45-1-1v-1.46l-6-4v5.46c0,.33.17.65.45.83Z"/>
</svg>