<?xml version="1.0" encoding="UTF-8"?>
<svg id="OBJECT" xmlns="http://www.w3.org/2000/svg" viewBox="0 0 32 32">
  <defs>
    <style>
      .cls-1 {
        stroke-width: 0px;
      }
    </style>
  </defs>
  <path class="cls-1" d="m12.5,13.67c2.76,0,5-2.24,5-5v-4c0-2.02-1.64-3.67-3.67-3.67h-2.67c-2.02,0-3.67,1.65-3.67,3.67v4c0,2.76,2.24,5,5,5Z"/>
  <path class="cls-1" d="m21.34,13.15c-.66-.79-1.42-1.49-2.27-2.08-.98,2.68-3.55,4.59-6.57,4.59s-5.58-1.92-6.57-4.59c-2.98,2.08-4.93,5.53-4.93,9.43v4.5c0,1.65,1.35,3,3,3h2v-3c0-.55.45-1,1-1s1,.45,1,1v3h6.35c-.86-1.47-1.35-3.18-1.35-5,0-4.95,3.61-9.05,8.34-9.85Z"/>
  <polygon class="cls-1" points="21.2 23 23 25.7 24.8 23 23 20.3 21.2 23"/>
  <path class="cls-1" d="m23,15c-4.41,0-8,3.59-8,8s3.59,8,8,8,8-3.59,8-8-3.59-8-8-8Zm3.83,8.55l-3,4.5c-.19.28-.5.45-.83.45s-.65-.17-.83-.45l-3-4.5c-.22-.34-.22-.77,0-1.11l3-4.5c.37-.56,1.29-.56,1.66,0l3,4.5c.22.34.22.77,0,1.11Z"/>
</svg>