<?xml version="1.0" encoding="UTF-8"?>
<svg id="OBJECT" xmlns="http://www.w3.org/2000/svg" viewBox="0 0 32 32">
  <defs>
    <style>
      .cls-1 {
        stroke-width: 0px;
      }
    </style>
  </defs>
  <path class="cls-1" d="m3,4h-1c-.55,0-1,.45-1,1s.45,1,1,1h1c.55,0,1,.45,1,1v1.75H1v6h3v3.5H1v5h3v3.75c0,.55.45,1,1,1s1-.45,1-1V7c0-1.65-1.35-3-3-3Z"/>
  <path class="cls-1" d="m11,27c0,.55.45,1,1,1h10c.38,0,.72-.21.89-.55l.72-1.45h-12.62v1Z"/>
  <path class="cls-1" d="m23,14c-.55,0-1-.45-1-1s.45-1,1-1h2.5l-2.1-2.8c-.57-.76-1.46-1.2-2.4-1.2h-13v16h23v-10h-8Zm-8.5,7c-2.76,0-5-2.24-5-5s2.24-5,5-5,5,2.24,5,5-2.24,5-5,5Zm8.5,0h-.5c-.55,0-1-.45-1-1s.45-1,1-1h.5c.55,0,1,.45,1,1s-.45,1-1,1Zm4,0h-.5c-.55,0-1-.45-1-1s.45-1,1-1h.5c.55,0,1,.45,1,1s-.45,1-1,1Z"/>
  <path class="cls-1" d="m14.5,13c-1.65,0-3,1.35-3,3s1.35,3,3,3,3-1.35,3-3-1.35-3-3-3Zm.5,4h-1c-.55,0-1-.45-1-1s.45-1,1-1h1c.55,0,1,.45,1,1s-.45,1-1,1Z"/>
</svg>