<?xml version="1.0" encoding="UTF-8"?>
<svg id="OBJECT" xmlns="http://www.w3.org/2000/svg" viewBox="0 0 32 32">
  <defs>
    <style>
      .cls-1 {
        stroke-width: 0px;
      }
    </style>
  </defs>
  <path class="cls-1" d="m16,4.1c.55,0,1-.45,1-1v-1.1c0-.55-.45-1-1-1s-1,.45-1,1v1.1c0,.55.45,1,1,1Z"/>
  <path class="cls-1" d="m8.55,3.93c.17.36.53.57.9.57.14,0,.29-.03.43-.1.5-.24.71-.83.47-1.33l-.45-.95c-.24-.5-.84-.71-1.33-.47-.5.24-.71.83-.47,1.33l.45.95Z"/>
  <path class="cls-1" d="m22.12,4.4c.14.07.29.1.43.1.37,0,.73-.21.9-.57l.45-.95c.24-.5.03-1.1-.47-1.33-.5-.24-1.09-.03-1.33.47l-.45.95c-.24.5-.03,1.1.47,1.33Z"/>
  <path class="cls-1" d="m16,27.9c-.55,0-1,.45-1,1v1.1c0,.55.45,1,1,1s1-.45,1-1v-1.1c0-.55-.45-1-1-1Z"/>
  <path class="cls-1" d="m9.88,27.6c-.5-.24-1.09-.03-1.33.47l-.45.95c-.24.5-.03,1.09.47,1.33.14.07.29.1.43.1.37,0,.73-.21.9-.57l.45-.95c.24-.5.03-1.09-.47-1.33Z"/>
  <path class="cls-1" d="m23.45,28.07c-.24-.5-.84-.71-1.33-.47-.5.24-.71.83-.47,1.33l.45.95c.17.36.53.57.9.57.14,0,.29-.03.43-.1.5-.24.71-.83.47-1.33l-.45-.95Z"/>
  <polygon class="cls-1" points="12.65 15.56 16 17.04 19.35 15.56 16 10.35 12.65 15.56"/>
  <path class="cls-1" d="m16,19.13c-.14,0-.28-.03-.4-.09l-1.77-.78,2.18,3.39,2.18-3.39-1.77.78c-.13.06-.27.09-.4.09Z"/>
  <path class="cls-1" d="m1.08,15.62c-.1.24-.1.52,0,.76,1.14,2.75,2.75,5.08,4.67,6.89-.8-2.23-1.25-4.71-1.25-7.27s.45-5.04,1.25-7.27c-1.92,1.81-3.53,4.13-4.67,6.89Z"/>
  <path class="cls-1" d="m16,4.5c-2.42,0-4.74.62-6.84,1.75-1.7,2.63-2.66,6.1-2.66,9.75s.96,7.13,2.66,9.75c2.11,1.13,4.43,1.75,6.84,1.75s4.74-.62,6.84-1.75c1.7-2.63,2.66-6.1,2.66-9.75s-.96-7.12-2.66-9.75c-2.11-1.13-4.43-1.75-6.84-1.75Zm5.66,12.04l-4.82,7.5c-.18.29-.5.46-.84.46s-.66-.17-.84-.46l-4.82-7.5c-.21-.33-.21-.75,0-1.08l4.82-7.5c.37-.57,1.31-.57,1.68,0l4.82,7.5c.21.33.21.75,0,1.08Z"/>
  <path class="cls-1" d="m30.92,15.62c-1.14-2.75-2.75-5.08-4.67-6.89.8,2.23,1.25,4.71,1.25,7.27s-.45,5.04-1.25,7.27c1.92-1.81,3.53-4.13,4.67-6.89.1-.24.1-.52,0-.76Z"/>
</svg>