<?xml version="1.0" encoding="UTF-8"?>
<svg id="OBJECT" xmlns="http://www.w3.org/2000/svg" viewBox="0 0 32 32">
  <defs>
    <style>
      .cls-1 {
        stroke-width: 0px;
      }
    </style>
  </defs>
  <path class="cls-1" d="m4,5h15V1H4c-.55,0-1,.45-1,1v2c0,.55.45,1,1,1Z"/>
  <polygon class="cls-1" points="21.2 23 23 25.7 24.8 23 23 20.3 21.2 23"/>
  <path class="cls-1" d="m23,15c-4.41,0-8,3.59-8,8s3.59,8,8,8,8-3.59,8-8-3.59-8-8-8Zm3.83,8.55l-3,4.5c-.19.28-.5.45-.83.45s-.65-.17-.83-.45l-3-4.5c-.22-.34-.22-.77,0-1.11l3-4.5c.37-.56,1.29-.56,1.66,0l3,4.5c.22.34.22.77,0,1.11Z"/>
  <path class="cls-1" d="m23,13c.34,0,.67.02,1,.05v-6.05H4c-1.65,0-3-1.35-3-3v17c0,1.65,1.35,3,3,3h4v-4.78l-2.37-2.37c-.19-.19-.29-.44-.29-.71v-1.65c0-.55.45-1,1-1s1,.45,1,1v1.24l2.37,2.37c.19.19.29.44.29.71v5.19h3.05c-.03-.33-.05-.66-.05-1,0-5.51,4.49-10,10-10Zm-15.66-1.72c0,.55-.45,1-1,1s-1-.45-1-1v-.59c0-.55.45-1,1-1s1,.45,1,1v.59Z"/>
</svg>