<?xml version="1.0" encoding="UTF-8"?>
<svg id="OBJECT" xmlns="http://www.w3.org/2000/svg" viewBox="0 0 32 32">
  <defs>
    <style>
      .cls-1 {
        stroke-width: 0px;
      }
    </style>
  </defs>
  <path class="cls-1" d="m9.32,16c-1.46,1.62-2.32,3.74-2.32,6,0,4.96,4.04,9,9,9s9-4.04,9-9c0-2.26-.86-4.38-2.32-6h-13.37Zm10.51,7.05l-3,4.5c-.19.28-.5.45-.83.45s-.65-.17-.83-.45l-3-4.5c-.22-.34-.22-.77,0-1.11l3-4.5c.37-.56,1.29-.56,1.66,0l3,4.5c.22.34.22.77,0,1.11Z"/>
  <polygon class="cls-1" points="14.2 22.5 16 25.2 17.8 22.5 16 19.8 14.2 22.5"/>
  <path class="cls-1" d="m29,9h-6v-.88c0-.35.18-.67.48-.85l2.55-1.57c.47-.29.62-.91.33-1.38-.29-.47-.91-.62-1.38-.33l-2.55,1.57c-.89.55-1.43,1.51-1.43,2.55v.88h-4v-3c0-.55-.45-1-1-1s-1,.45-1,1v3h-4v-.88c0-1.05-.53-2-1.43-2.55l-2.55-1.57c-.47-.29-1.09-.14-1.38.33-.29.47-.14,1.09.33,1.38l2.55,1.57c.3.18.48.5.48.85v.88H3c-1.1,0-2,.9-2,2v9c0,1.1.9,2,2,2h2c0-2.18.66-4.25,1.81-6h-1.31c-.55,0-1-.45-1-1s.45-1,1-1h21c.55,0,1,.45,1,1s-.45,1-1,1h-1.31c1.15,1.75,1.81,3.82,1.81,6h2c1.1,0,2-.9,2-2v-9c0-1.1-.9-2-2-2Z"/>
  <path class="cls-1" d="m16,3.5c.55,0,1-.45,1-1v-.5c0-.55-.45-1-1-1s-1,.45-1,1v.5c0,.55.45,1,1,1Z"/>
  <path class="cls-1" d="m28.12,4.24c.18,0,.36-.05.52-.15l.39-.24c.47-.29.62-.91.33-1.38s-.91-.62-1.38-.33l-.39.24c-.47.29-.62.91-.33,1.38.19.31.52.48.85.48Z"/>
  <path class="cls-1" d="m2.98,3.85l.39.24c.16.1.34.15.52.15.34,0,.66-.17.85-.48.29-.47.14-1.09-.33-1.38l-.39-.24c-.47-.29-1.09-.14-1.38.33-.29.47-.14,1.09.33,1.38Z"/>
</svg>